<?xml version="1.0" encoding="UTF-8" standalone="no"?>
<!-- Created with Inkscape (http://www.inkscape.org/) -->

<svg
   xmlns:dc="http://purl.org/dc/elements/1.1/"
   xmlns:cc="http://creativecommons.org/ns#"
   xmlns:rdf="http://www.w3.org/1999/02/22-rdf-syntax-ns#"
   xmlns:svg="http://www.w3.org/2000/svg"
   xmlns="http://www.w3.org/2000/svg"
   xmlns:sodipodi="http://sodipodi.sourceforge.net/DTD/sodipodi-0.dtd"
   xmlns:inkscape="http://www.inkscape.org/namespaces/inkscape"
   id="svg3004"
   version="1.1"
   inkscape:version="0.48.4 r9939"
   width="366.25"
   height="187.5"
   xml:space="preserve"
   sodipodi:docname="Graph_1.pdf"><metadata
     id="metadata3010"><rdf:RDF><cc:Work
         rdf:about=""><dc:format>image/svg+xml</dc:format><dc:type
           rdf:resource="http://purl.org/dc/dcmitype/StillImage" /><dc:title></dc:title></cc:Work></rdf:RDF></metadata><defs
     id="defs3008"><clipPath
       clipPathUnits="userSpaceOnUse"
       id="clipPath3030"><path
         d="m 5.741508,113.7043 23.000002,0 0,-17.99997 -23.000002,0 0,17.99997 z"
         id="path3032" /></clipPath><clipPath
       clipPathUnits="userSpaceOnUse"
       id="clipPath3036"><path
         d="m 6,96 23,0 0,18 -23,0 0,-18 z"
         id="path3038" /></clipPath><clipPath
       clipPathUnits="userSpaceOnUse"
       id="clipPath3064"><path
         d="m 88.20012,113.7043 23.99998,0 0,-17.99997 -23.99998,0 0,17.99997 z"
         id="path3066" /></clipPath><clipPath
       clipPathUnits="userSpaceOnUse"
       id="clipPath3070"><path
         d="m 88,96 24,0 0,18 -24,0 0,-18 z"
         id="path3072" /></clipPath><clipPath
       clipPathUnits="userSpaceOnUse"
       id="clipPath3124"><path
         d="m 167.829,142.486 24,0 0,-18 -24,0 0,18 z"
         id="path3126" /></clipPath><clipPath
       clipPathUnits="userSpaceOnUse"
       id="clipPath3130"><path
         d="m 168,124 24,0 0,18 -24,0 0,-18 z"
         id="path3132" /></clipPath><clipPath
       clipPathUnits="userSpaceOnUse"
       id="clipPath3178"><path
         d="m 263.7448,84.79372 24,0 0,-18 -24,0 0,18 z"
         id="path3180" /></clipPath><clipPath
       clipPathUnits="userSpaceOnUse"
       id="clipPath3184"><path
         d="m 264,67 24,0 0,18 -24,0 0,-18 z"
         id="path3186" /></clipPath><clipPath
       clipPathUnits="userSpaceOnUse"
       id="clipPath3216"><path
         d="m 167.829,84.79372 24,0 0,-18 -24,0 0,18 z"
         id="path3218" /></clipPath><clipPath
       clipPathUnits="userSpaceOnUse"
       id="clipPath3222"><path
         d="m 168,67 24,0 0,18 -24,0 0,-18 z"
         id="path3224" /></clipPath><clipPath
       clipPathUnits="userSpaceOnUse"
       id="clipPath3252"><path
         d="m 48.15373,92.45526 17,0 0,-19 -17,0 0,19 z"
         id="path3254" /></clipPath><clipPath
       clipPathUnits="userSpaceOnUse"
       id="clipPath3258"><path
         d="m 48,73 17,0 0,19 -17,0 0,-19 z"
         id="path3260" /></clipPath><clipPath
       clipPathUnits="userSpaceOnUse"
       id="clipPath3278"><path
         d="m 130.6467,92.45526 17,0 0,-19 -17,0 0,19 z"
         id="path3280" /></clipPath><clipPath
       clipPathUnits="userSpaceOnUse"
       id="clipPath3284"><path
         d="m 131,73 17,0 0,19 -17,0 0,-19 z"
         id="path3286" /></clipPath><clipPath
       clipPathUnits="userSpaceOnUse"
       id="clipPath3304"><path
         d="m 216.9308,119.2183 17,0 0,-19 -17,0 0,19 z"
         id="path3306" /></clipPath><clipPath
       clipPathUnits="userSpaceOnUse"
       id="clipPath3310"><path
         d="m 217,100 17,0 0,19 -17,0 0,-19 z"
         id="path3312" /></clipPath><clipPath
       clipPathUnits="userSpaceOnUse"
       id="clipPath3330"><path
         d="m 168.0292,19.76028 18,0 0,-18.9999956 -18,0 0,18.9999956 z"
         id="path3332" /></clipPath><clipPath
       clipPathUnits="userSpaceOnUse"
       id="clipPath3336"><path
         d="m 168,1 18,0 0,19 -18,0 0,-19 z"
         id="path3338" /></clipPath><clipPath
       clipPathUnits="userSpaceOnUse"
       id="clipPath3356"><path
         d="m 216.9308,65.45523 17,0 0,-19 -17,0 0,19 z"
         id="path3358" /></clipPath><clipPath
       clipPathUnits="userSpaceOnUse"
       id="clipPath3362"><path
         d="m 217,46 17,0 0,19 -17,0 0,-19 z"
         id="path3364" /></clipPath></defs><sodipodi:namedview
     pagecolor="#ffffff"
     bordercolor="#666666"
     borderopacity="1"
     objecttolerance="10"
     gridtolerance="10"
     guidetolerance="10"
     inkscape:pageopacity="0"
     inkscape:pageshadow="2"
     inkscape:window-width="1317"
     inkscape:window-height="744"
     id="namedview3006"
     showgrid="false"
     inkscape:zoom="2.243435"
     inkscape:cx="199.99254"
     inkscape:cy="99.914444"
     inkscape:window-x="49"
     inkscape:window-y="24"
     inkscape:window-maximized="1"
     inkscape:current-layer="g3012" /><g
     id="g3012"
     inkscape:groupmode="layer"
     inkscape:label="Graph_1"
     transform="matrix(1.25,0,0,-1.25,0,187.5)"><g
       id="g3014" /><g
       id="g3016"><path
         d="m -78.5,258.5 559.22,0 0,-783 -559.22,0 0,783 z"
         style="fill:#ffffff;fill-opacity:1;fill-rule:nonzero;stroke:none"
         id="path3018" /><path
         d="m 28.00442,114.4673 c 5.66808,-5.6681 5.66808,-14.85783 0,-20.52589 -5.66806,-5.66808 -14.85778,-5.66808 -20.525836,0 -5.668083,5.66806 -5.668083,14.85779 0,20.52589 5.668056,5.668 14.857776,5.668 20.525836,0"
         style="fill:#ffffff;fill-opacity:1;fill-rule:nonzero;stroke:none"
         id="path3020" /><g
         id="g3022"
         transform="matrix(1,0,0,-1,-77.5,257.5)"><path
           d="m 105.5044,143.0327 c 5.6681,5.6681 5.6681,14.8578 0,20.5259 -5.66804,5.6681 -14.85776,5.6681 -20.52582,0 -5.66808,-5.6681 -5.66808,-14.8578 0,-20.5259 5.66806,-5.668 14.85778,-5.668 20.52582,0"
           style="fill:none;stroke:#000000;stroke-opacity:1;stroke-width:1;stroke-linecap:round;stroke-linejoin:round;stroke-miterlimit:10;stroke-dasharray:none"
           id="path3024" /></g></g><g
       id="g3026"><g
         id="g3028"
         clip-path="url(#clipPath3030)"><g
           id="g3034"
           clip-path="url(#clipPath3036)"><g
             id="g3040"
             transform="matrix(2,0,0,2,-593.0541,-1170.996)"><text
               transform="matrix(1,0,0,-1,299.262,635.3181)"
               id="text3042"><tspan
                 style="fill:#000000;fill-opacity:1;fill-rule:nonzero;stroke:none;font-family:CMMI10;font-variant:normal;font-weight:normal;font-size:9.9626;writing-mode:lr;-inkscape-font-specification:CMMI10"
                 x="0"
                 y="0"
                 id="tspan3044">X</tspan></text>
</g><g
             id="g3046"
             transform="matrix(2,0,0,2,-593.0541,-1170.996)"><text
               transform="matrix(1,0,0,-1,307.516,633.8231)"
               id="text3048"><tspan
                 style="fill:#000000;fill-opacity:1;fill-rule:nonzero;stroke:none;font-family:CMR7;font-variant:normal;font-weight:normal;font-size:6.9738;writing-mode:lr;-inkscape-font-specification:CMR7"
                 x="0"
                 y="0"
                 id="tspan3050">1</tspan></text>
</g></g></g></g><g
       id="g3052"><path
         d="m 110.963,114.4673 c 5.6681,-5.6681 5.6681,-14.85783 0,-20.52589 -5.6681,-5.66808 -14.85781,-5.66808 -20.52587,0 -5.66807,5.66806 -5.66807,14.85779 0,20.52589 5.66806,5.668 14.85777,5.668 20.52587,0"
         style="fill:#ffffff;fill-opacity:1;fill-rule:nonzero;stroke:none"
         id="path3054" /><g
         id="g3056"
         transform="matrix(1,0,0,-1,-77.5,257.5)"><path
           d="m 188.463,143.0327 c 5.6681,5.6681 5.6681,14.8578 0,20.5259 -5.6681,5.6681 -14.8578,5.6681 -20.5259,0 -5.668,-5.6681 -5.668,-14.8578 0,-20.5259 5.6681,-5.668 14.8578,-5.668 20.5259,0"
           style="fill:none;stroke:#000000;stroke-opacity:1;stroke-width:1;stroke-linecap:round;stroke-linejoin:round;stroke-miterlimit:10;stroke-dasharray:none"
           id="path3058" /></g></g><g
       id="g3060"><g
         id="g3062"
         clip-path="url(#clipPath3064)"><g
           id="g3068"
           clip-path="url(#clipPath3070)"><g
             id="g3074"
             transform="matrix(2,0,0,2,-511.0541,-1170.996)"><text
               transform="matrix(1,0,0,-1,299.262,635.3181)"
               id="text3076"><tspan
                 style="fill:#000000;fill-opacity:1;fill-rule:nonzero;stroke:none;font-family:CMMI10;font-variant:normal;font-weight:normal;font-size:9.9626;writing-mode:lr;-inkscape-font-specification:CMMI10"
                 x="0"
                 y="0"
                 id="tspan3078">X</tspan></text>
</g><g
             id="g3080"
             transform="matrix(2,0,0,2,-511.0541,-1170.996)"><text
               transform="matrix(1,0,0,-1,307.516,633.8231)"
               id="text3082"><tspan
                 style="fill:#000000;fill-opacity:1;fill-rule:nonzero;stroke:none;font-family:CMR7;font-variant:normal;font-weight:normal;font-size:6.9738;writing-mode:lr;-inkscape-font-specification:CMR7"
                 x="0"
                 y="0"
                 id="tspan3084">2</tspan></text>
</g></g></g></g><g
       id="g3086"><g
         id="g3088"
         transform="matrix(1,0,0,-1,-77.5,257.5)"><path
           d="m 110.2555,153.2957 52.9306,0"
           style="fill:none;stroke:#000000;stroke-opacity:1;stroke-width:1;stroke-linecap:round;stroke-linejoin:round;stroke-miterlimit:10;stroke-dasharray:none"
           id="path3090" /></g><path
         d="m 53.21819,110.4045 12.40029,0 0,-12.40032 -12.40029,0 0,12.40032 z"
         style="fill:#000000;fill-opacity:1;fill-rule:nonzero;stroke:none"
         id="path3092" /><g
         id="g3094"
         transform="matrix(1,0,0,-1,-77.5,257.5)"><path
           d="m 130.7182,147.0955 12.4003,0 0,12.4003 -12.4003,0 0,-12.4003 z"
           style="fill:none;stroke:#000000;stroke-opacity:1;stroke-width:1;stroke-linecap:round;stroke-linejoin:round;stroke-miterlimit:10;stroke-dasharray:none"
           id="path3096" /></g><path
         d="m 135.7464,110.4045 12.4003,0 0,-12.40032 -12.4003,0 0,12.40032 z"
         style="fill:#000000;fill-opacity:1;fill-rule:nonzero;stroke:none"
         id="path3098" /><g
         id="g3100"
         transform="matrix(1,0,0,-1,-77.5,257.5)"><path
           d="m 213.2464,147.0955 12.4003,0 0,12.4003 -12.4003,0 0,-12.4003 z"
           style="fill:none;stroke:#000000;stroke-opacity:1;stroke-width:1;stroke-linecap:round;stroke-linejoin:round;stroke-miterlimit:10;stroke-dasharray:none"
           id="path3102" /></g><path
         d="m 190.5919,85.55664 c 5.6681,-5.66806 5.6681,-14.85779 0,-20.52585 -5.668,-5.66807 -14.8577,-5.66807 -20.5258,0 -5.6681,5.66806 -5.6681,14.85779 0,20.52585 5.6681,5.66808 14.8578,5.66808 20.5258,0"
         style="fill:#ffffff;fill-opacity:1;fill-rule:nonzero;stroke:none"
         id="path3104" /><g
         id="g3106"
         transform="matrix(1,0,0,-1,-77.5,257.5)"><path
           d="m 268.0919,171.9434 c 5.6681,5.668 5.6681,14.8577 0,20.5258 -5.668,5.6681 -14.8577,5.6681 -20.5258,0 -5.6681,-5.6681 -5.6681,-14.8578 0,-20.5258 5.6681,-5.6681 14.8578,-5.6681 20.5258,0"
           style="fill:none;stroke:#000000;stroke-opacity:1;stroke-width:1;stroke-linecap:round;stroke-linejoin:round;stroke-miterlimit:10;stroke-dasharray:none"
           id="path3108" /></g><g
         id="g3110"
         transform="matrix(1,0,0,-1,-77.5,257.5)"><path
           d="m 193.214,153.2957 19.5324,0"
           style="fill:none;stroke:#000000;stroke-opacity:1;stroke-width:1;stroke-linecap:round;stroke-linejoin:round;stroke-miterlimit:10;stroke-dasharray:none"
           id="path3112" /></g><path
         d="m 190.5919,143.2489 c 5.6681,-5.668 5.6681,-14.8578 0,-20.5258 -5.668,-5.6681 -14.8577,-5.6681 -20.5258,0 -5.6681,5.668 -5.6681,14.8578 0,20.5258 5.6681,5.6681 14.8578,5.6681 20.5258,0"
         style="fill:#ffffff;fill-opacity:1;fill-rule:nonzero;stroke:none"
         id="path3114" /><g
         id="g3116"
         transform="matrix(1,0,0,-1,-77.5,257.5)"><path
           d="m 268.0919,114.2511 c 5.6681,5.668 5.6681,14.8578 0,20.5258 -5.668,5.6681 -14.8577,5.6681 -20.5258,0 -5.6681,-5.668 -5.6681,-14.8578 0,-20.5258 5.6681,-5.6681 14.8578,-5.6681 20.5258,0"
           style="fill:none;stroke:#000000;stroke-opacity:1;stroke-width:1;stroke-linecap:round;stroke-linejoin:round;stroke-miterlimit:10;stroke-dasharray:none"
           id="path3118" /></g></g><g
       id="g3120"><g
         id="g3122"
         clip-path="url(#clipPath3124)"><g
           id="g3128"
           clip-path="url(#clipPath3130)"><g
             id="g3134"
             transform="matrix(2,0,0,2,-431.0541,-1142.996)"><text
               transform="matrix(1,0,0,-1,299.262,635.3181)"
               id="text3136"><tspan
                 style="fill:#000000;fill-opacity:1;fill-rule:nonzero;stroke:none;font-family:CMMI10;font-variant:normal;font-weight:normal;font-size:9.9626;writing-mode:lr;-inkscape-font-specification:CMMI10"
                 x="0"
                 y="0"
                 id="tspan3138">X</tspan></text>
</g><g
             id="g3140"
             transform="matrix(2,0,0,2,-431.0541,-1142.996)"><text
               transform="matrix(1,0,0,-1,307.516,633.8231)"
               id="text3142"><tspan
                 style="fill:#000000;fill-opacity:1;fill-rule:nonzero;stroke:none;font-family:CMR7;font-variant:normal;font-weight:normal;font-size:6.9738;writing-mode:lr;-inkscape-font-specification:CMR7"
                 x="0"
                 y="0"
                 id="tspan3144">3</tspan></text>
</g></g></g></g><g
       id="g3146"><g
         id="g3148"
         transform="matrix(1,0,0,-1,-77.5,257.5)"><path
           d="m 245.819,133.5269 -19.7718,14.8376"
           style="fill:none;stroke:#000000;stroke-opacity:1;stroke-width:1;stroke-linecap:round;stroke-linejoin:round;stroke-miterlimit:10;stroke-dasharray:none"
           id="path3150" /></g><g
         id="g3152"
         transform="matrix(1,0,0,-1,-77.5,257.5)"><path
           d="M 245.835,173.1721 226.0461,158.2665"
           style="fill:none;stroke:#000000;stroke-opacity:1;stroke-width:1;stroke-linecap:round;stroke-linejoin:round;stroke-miterlimit:10;stroke-dasharray:none"
           id="path3154" /></g><path
         d="m 219.7307,139.1862 12.4002,0 0,-12.4003 -12.4002,0 0,12.4003 z"
         style="fill:#000000;fill-opacity:1;fill-rule:nonzero;stroke:none"
         id="path3156" /><g
         id="g3158"
         transform="matrix(1,0,0,-1,-77.5,257.5)"><path
           d="m 297.2307,118.3138 12.4002,0 0,12.4003 -12.4002,0 0,-12.4003 z"
           style="fill:none;stroke:#000000;stroke-opacity:1;stroke-width:1;stroke-linecap:round;stroke-linejoin:round;stroke-miterlimit:10;stroke-dasharray:none"
           id="path3160" /></g><path
         d="m 174.1289,37.96155 12.4003,0 0,-12.4003 -12.4003,0 0,12.4003 z"
         style="fill:#000000;fill-opacity:1;fill-rule:nonzero;stroke:none"
         id="path3162" /><g
         id="g3164"
         transform="matrix(1,0,0,-1,-77.5,257.5)"><path
           d="m 251.6289,219.5385 12.4003,0 0,12.4003 -12.4003,0 0,-12.4003 z"
           style="fill:none;stroke:#000000;stroke-opacity:1;stroke-width:1;stroke-linecap:round;stroke-linejoin:round;stroke-miterlimit:10;stroke-dasharray:none"
           id="path3166" /></g><path
         d="m 286.5077,85.55664 c 5.6681,-5.66806 5.6681,-14.85779 0,-20.52585 -5.6681,-5.66807 -14.8578,-5.66807 -20.5259,0 -5.668,5.66806 -5.668,14.85779 0,20.52585 5.6681,5.66808 14.8578,5.66808 20.5259,0"
         style="fill:#ffffff;fill-opacity:1;fill-rule:nonzero;stroke:none"
         id="path3168" /><g
         id="g3170"
         transform="matrix(1,0,0,-1,-77.5,257.5)"><path
           d="m 364.0077,171.9434 c 5.6681,5.668 5.6681,14.8577 0,20.5258 -5.6681,5.6681 -14.8578,5.6681 -20.5259,0 -5.668,-5.6681 -5.668,-14.8578 0,-20.5258 5.6681,-5.6681 14.8578,-5.6681 20.5259,0"
           style="fill:none;stroke:#000000;stroke-opacity:1;stroke-width:1;stroke-linecap:round;stroke-linejoin:round;stroke-miterlimit:10;stroke-dasharray:none"
           id="path3172" /></g></g><g
       id="g3174"><g
         id="g3176"
         clip-path="url(#clipPath3178)"><g
           id="g3182"
           clip-path="url(#clipPath3184)"><g
             id="g3188"
             transform="matrix(2,0,0,2,-335.0541,-1199.996)"><text
               transform="matrix(1,0,0,-1,299.262,635.3181)"
               id="text3190"><tspan
                 style="fill:#000000;fill-opacity:1;fill-rule:nonzero;stroke:none;font-family:CMMI10;font-variant:normal;font-weight:normal;font-size:9.9626;writing-mode:lr;-inkscape-font-specification:CMMI10"
                 x="0"
                 y="0"
                 id="tspan3192">X</tspan></text>
</g><g
             id="g3194"
             transform="matrix(2,0,0,2,-335.0541,-1199.996)"><text
               transform="matrix(1,0,0,-1,307.516,633.8231)"
               id="text3196"><tspan
                 style="fill:#000000;fill-opacity:1;fill-rule:nonzero;stroke:none;font-family:CMR7;font-variant:normal;font-weight:normal;font-size:6.9738;writing-mode:lr;-inkscape-font-specification:CMR7"
                 x="0"
                 y="0"
                 id="tspan3198">5</tspan></text>
</g></g></g></g><g
       id="g3200"><path
         d="m 219.7791,81.49387 12.4002,0 0,-12.4003 -12.4002,0 0,12.4003 z"
         style="fill:#000000;fill-opacity:1;fill-rule:nonzero;stroke:none"
         id="path3202" /><g
         id="g3204"
         transform="matrix(1,0,0,-1,-77.5,257.5)"><path
           d="m 297.2791,176.0061 12.4002,0 0,12.4003 -12.4002,0 0,-12.4003 z"
           style="fill:none;stroke:#000000;stroke-opacity:1;stroke-width:1;stroke-linecap:round;stroke-linejoin:round;stroke-miterlimit:10;stroke-dasharray:none"
           id="path3206" /></g><g
         id="g3208"
         transform="matrix(1,0,0,-1,-77.5,257.5)"><path
           d="m 272.843,182.2063 65.8878,0"
           style="fill:none;stroke:#000000;stroke-opacity:1;stroke-width:1;stroke-linecap:round;stroke-linejoin:round;stroke-miterlimit:10;stroke-dasharray:none"
           id="path3210" /></g></g><g
       id="g3212"><g
         id="g3214"
         clip-path="url(#clipPath3216)"><g
           id="g3220"
           clip-path="url(#clipPath3222)"><g
             id="g3226"
             transform="matrix(2,0,0,2,-431.0541,-1199.996)"><text
               transform="matrix(1,0,0,-1,299.262,635.3181)"
               id="text3228"><tspan
                 style="fill:#000000;fill-opacity:1;fill-rule:nonzero;stroke:none;font-family:CMMI10;font-variant:normal;font-weight:normal;font-size:9.9626;writing-mode:lr;-inkscape-font-specification:CMMI10"
                 x="0"
                 y="0"
                 id="tspan3230">X</tspan></text>
</g><g
             id="g3232"
             transform="matrix(2,0,0,2,-431.0541,-1199.996)"><text
               transform="matrix(1,0,0,-1,307.516,633.8231)"
               id="text3234"><tspan
                 style="fill:#000000;fill-opacity:1;fill-rule:nonzero;stroke:none;font-family:CMR7;font-variant:normal;font-weight:normal;font-size:6.9738;writing-mode:lr;-inkscape-font-specification:CMR7"
                 x="0"
                 y="0"
                 id="tspan3236">4</tspan></text>
</g></g></g></g><g
       id="g3238"><g
         id="g3240"
         transform="matrix(1,0,0,-1,-77.5,257.5)"><path
           d="m 257.829,219.0385 0,-21.8182"
           style="fill:none;stroke:#000000;stroke-opacity:1;stroke-width:1;stroke-linecap:round;stroke-linejoin:round;stroke-miterlimit:10;stroke-dasharray:none"
           id="path3242" /></g><g
         id="g3244"
         transform="matrix(1,0,0,-1,-77.5,257.5)"><path
           d="m 272.843,124.514 23.8877,0"
           style="fill:none;stroke:#000000;stroke-opacity:1;stroke-width:1;stroke-linecap:round;stroke-linejoin:round;stroke-miterlimit:10;stroke-dasharray:none"
           id="path3246" /></g></g><g
       id="g3248"><g
         id="g3250"
         clip-path="url(#clipPath3252)"><g
           id="g3256"
           clip-path="url(#clipPath3258)"><g
             id="g3262"
             transform="matrix(2,0,0,2,-554.0541,-1192.996)"><text
               transform="matrix(1,0,0,-1,300.95,635.3181)"
               id="text3264"><tspan
                 style="fill:#000000;fill-opacity:1;fill-rule:nonzero;stroke:none;font-family:CMMI10;font-variant:normal;font-weight:normal;font-size:9.9626;writing-mode:lr;-inkscape-font-specification:CMMI10"
                 x="0"
                 y="0"
                 id="tspan3266">f</tspan></text>
</g><g
             id="g3268"
             transform="matrix(2,0,0,2,-554.0541,-1192.996)"><text
               transform="matrix(1,0,0,-1,305.828,633.8231)"
               id="text3270"><tspan
                 style="fill:#000000;fill-opacity:1;fill-rule:nonzero;stroke:none;font-family:CMR7;font-variant:normal;font-weight:normal;font-size:6.9738;writing-mode:lr;-inkscape-font-specification:CMR7"
                 x="0"
                 y="0"
                 id="tspan3272">1</tspan></text>
</g></g></g></g><g
       id="g3274"><g
         id="g3276"
         clip-path="url(#clipPath3278)"><g
           id="g3282"
           clip-path="url(#clipPath3284)"><g
             id="g3288"
             transform="matrix(2,0,0,2,-471.0541,-1192.996)"><text
               transform="matrix(1,0,0,-1,300.95,635.3181)"
               id="text3290"><tspan
                 style="fill:#000000;fill-opacity:1;fill-rule:nonzero;stroke:none;font-family:CMMI10;font-variant:normal;font-weight:normal;font-size:9.9626;writing-mode:lr;-inkscape-font-specification:CMMI10"
                 x="0"
                 y="0"
                 id="tspan3292">f</tspan></text>
</g><g
             id="g3294"
             transform="matrix(2,0,0,2,-471.0541,-1192.996)"><text
               transform="matrix(1,0,0,-1,305.828,633.8231)"
               id="text3296"><tspan
                 style="fill:#000000;fill-opacity:1;fill-rule:nonzero;stroke:none;font-family:CMR7;font-variant:normal;font-weight:normal;font-size:6.9738;writing-mode:lr;-inkscape-font-specification:CMR7"
                 x="0"
                 y="0"
                 id="tspan3298">2</tspan></text>
</g></g></g></g><g
       id="g3300"><g
         id="g3302"
         clip-path="url(#clipPath3304)"><g
           id="g3308"
           clip-path="url(#clipPath3310)"><g
             id="g3314"
             transform="matrix(2,0,0,2,-385.0541,-1165.996)"><text
               transform="matrix(1,0,0,-1,300.95,635.3181)"
               id="text3316"><tspan
                 style="fill:#000000;fill-opacity:1;fill-rule:nonzero;stroke:none;font-family:CMMI10;font-variant:normal;font-weight:normal;font-size:9.9626;writing-mode:lr;-inkscape-font-specification:CMMI10"
                 x="0"
                 y="0"
                 id="tspan3318">f</tspan></text>
</g><g
             id="g3320"
             transform="matrix(2,0,0,2,-385.0541,-1165.996)"><text
               transform="matrix(1,0,0,-1,305.828,633.8231)"
               id="text3322"><tspan
                 style="fill:#000000;fill-opacity:1;fill-rule:nonzero;stroke:none;font-family:CMR7;font-variant:normal;font-weight:normal;font-size:6.9738;writing-mode:lr;-inkscape-font-specification:CMR7"
                 x="0"
                 y="0"
                 id="tspan3324">3</tspan></text>
</g></g></g></g><g
       id="g3326"><g
         id="g3328"
         clip-path="url(#clipPath3330)"><g
           id="g3334"
           clip-path="url(#clipPath3336)"><g
             id="g3340"
             transform="matrix(2,0,0,2,-434.0541,-1264.996)"><text
               transform="matrix(1,0,0,-1,300.95,635.3181)"
               id="text3342"><tspan
                 style="fill:#000000;fill-opacity:1;fill-rule:nonzero;stroke:none;font-family:CMMI10;font-variant:normal;font-weight:normal;font-size:9.9626;writing-mode:lr;-inkscape-font-specification:CMMI10"
                 x="0"
                 y="0"
                 id="tspan3344">f</tspan></text>
</g><g
             id="g3346"
             transform="matrix(2,0,0,2,-434.0541,-1264.996)"><text
               transform="matrix(1,0,0,-1,305.828,633.8231)"
               id="text3348"><tspan
                 style="fill:#000000;fill-opacity:1;fill-rule:nonzero;stroke:none;font-family:CMR7;font-variant:normal;font-weight:normal;font-size:6.9738;writing-mode:lr;-inkscape-font-specification:CMR7"
                 x="0"
                 y="0"
                 id="tspan3350">4</tspan></text>
</g></g></g></g><g
       id="g3352"><g
         id="g3354"
         clip-path="url(#clipPath3356)"><g
           id="g3360"
           clip-path="url(#clipPath3362)"><g
             id="g3366"
             transform="matrix(2,0,0,2,-385.0541,-1219.996)"><text
               transform="matrix(1,0,0,-1,300.95,635.3181)"
               id="text3368"><tspan
                 style="fill:#000000;fill-opacity:1;fill-rule:nonzero;stroke:none;font-family:CMMI10;font-variant:normal;font-weight:normal;font-size:9.9626;writing-mode:lr;-inkscape-font-specification:CMMI10"
                 x="0"
                 y="0"
                 id="tspan3370">f</tspan></text>
</g><g
             id="g3372"
             transform="matrix(2,0,0,2,-385.0541,-1219.996)"><text
               transform="matrix(1,0,0,-1,305.828,633.8231)"
               id="text3374"><tspan
                 style="fill:#000000;fill-opacity:1;fill-rule:nonzero;stroke:none;font-family:CMR7;font-variant:normal;font-weight:normal;font-size:6.9738;writing-mode:lr;-inkscape-font-specification:CMR7"
                 x="0"
                 y="0"
                 id="tspan3376">5</tspan></text>
</g></g></g></g></g></svg>