<?xml version="1.0" encoding="UTF-8" standalone="no"?>
<!-- Created with Inkscape (http://www.inkscape.org/) -->

<svg
   xmlns:dc="http://purl.org/dc/elements/1.1/"
   xmlns:cc="http://creativecommons.org/ns#"
   xmlns:rdf="http://www.w3.org/1999/02/22-rdf-syntax-ns#"
   xmlns:svg="http://www.w3.org/2000/svg"
   xmlns="http://www.w3.org/2000/svg"
   xmlns:sodipodi="http://sodipodi.sourceforge.net/DTD/sodipodi-0.dtd"
   xmlns:inkscape="http://www.inkscape.org/namespaces/inkscape"
   id="svg2985"
   version="1.1"
   inkscape:version="0.48.2 r9819"
   width="257.5"
   height="118.75"
   xml:space="preserve"
   sodipodi:docname="CCT_1v3_4.svg"><metadata
     id="metadata2991"><rdf:RDF><cc:Work
         rdf:about=""><dc:format>image/svg+xml</dc:format><dc:type
           rdf:resource="http://purl.org/dc/dcmitype/StillImage" /><dc:title /></cc:Work></rdf:RDF></metadata><defs
     id="defs2989" /><sodipodi:namedview
     pagecolor="#ffffff"
     bordercolor="#666666"
     borderopacity="1"
     objecttolerance="10"
     gridtolerance="10"
     guidetolerance="10"
     inkscape:pageopacity="0"
     inkscape:pageshadow="2"
     inkscape:window-width="1920"
     inkscape:window-height="1032"
     id="namedview2987"
     showgrid="false"
     inkscape:zoom="3.1909052"
     inkscape:cx="175.2188"
     inkscape:cy="78.857295"
     inkscape:window-x="0"
     inkscape:window-y="0"
     inkscape:window-maximized="0"
     inkscape:current-layer="g2995" /><g
     id="g2993"
     inkscape:groupmode="layer"
     inkscape:label="ink_ext_XXXXXX"
     transform="matrix(1.25,0,0,-1.25,0,118.75)"><g
       id="g2995"
       transform="scale(0.1,0.1)"><path
   d="m 1644.22,844.805 -1607.5794,0"
   style="fill:none;stroke:#000000;stroke-opacity:1;stroke-width:3.18209;stroke-linecap:butt;stroke-linejoin:miter;stroke-miterlimit:4;stroke-dasharray:none"
   id="path2997" /><path
   d="m 751.949,21.8789 c 8.871,11.332 7.11,27.9297 -3.98,37.0313 -11.059,9.1406 -27.27,7.3789 -36.168,-3.9493 -8.871,-11.3203 -7.11,-27.9296 3.98,-37.0312 11.059,-9.14064 27.27,-7.3789 36.168,3.9492"
   style="fill:#000000;fill-opacity:1;fill-rule:nonzero;stroke:none"
   id="path2999" /><path
   d="m 751.949,21.875 c 8.871,11.3281 7.11,27.9297 -3.98,37.0391 -11.059,9.1406 -27.27,7.3789 -36.168,-3.9493 -8.871,-11.332 -7.11,-27.9296 3.98,-37.0312 11.059,-9.14063 27.27,-7.3789 36.168,3.9414 z"
   style="fill:none;stroke:#231f20;stroke-opacity:1;stroke-width:4.04748;stroke-linecap:butt;stroke-linejoin:miter;stroke-miterlimit:4;stroke-dasharray:none"
   id="path3001" /><path
   d="m 910.078,861.211 c 8.942,-11.441 7.031,-28.082 -4.258,-37.141 -11.289,-9.07 -27.699,-7.148 -36.679,4.289 -8.942,11.45 -7.032,28.09 4.257,37.153 11.293,9.058 27.731,7.148 36.68,-4.301"
   style="fill:#cccccc;fill-opacity:1;fill-rule:nonzero;stroke:none"
   id="path3003" /><path
   d="m 910.078,861.215 c 8.942,-11.442 7.031,-28.09 -4.258,-37.152 -11.289,-9.059 -27.699,-7.149 -36.679,4.3 -8.942,11.442 -7.032,28.078 4.257,37.149 11.293,9.062 27.731,7.152 36.68,-4.297 z"
   style="fill:none;stroke:#231f20;stroke-opacity:1;stroke-width:4.08454;stroke-linecap:butt;stroke-linejoin:miter;stroke-miterlimit:4;stroke-dasharray:none"
   id="path3005" /><path
   d="m 1045.39,861.211 c 8.95,-11.441 7.03,-28.082 -4.26,-37.141 -11.29,-9.07 -27.69,-7.148 -36.68,4.289 -8.938,11.45 -7.028,28.09 4.26,37.153 11.29,9.058 27.74,7.148 36.68,-4.301"
   style="fill:#cccccc;fill-opacity:1;fill-rule:nonzero;stroke:none"
   id="path3007" /><path
   d="m 1045.39,861.215 c 8.95,-11.442 7.03,-28.09 -4.26,-37.152 -11.29,-9.059 -27.69,-7.149 -36.68,4.3 -8.938,11.442 -7.028,28.078 4.26,37.149 11.29,9.062 27.74,7.152 36.68,-4.297 z"
   style="fill:none;stroke:#231f20;stroke-opacity:1;stroke-width:4.08454;stroke-linecap:butt;stroke-linejoin:miter;stroke-miterlimit:4;stroke-dasharray:none"
   id="path3009" /><path
   d="m 778.359,861.211 c 8.942,-11.441 7.032,-28.082 -4.257,-37.141 -11.293,-9.07 -27.692,-7.148 -36.641,4.289 -8.981,11.45 -7.07,28.09 4.219,37.153 11.332,9.058 27.73,7.148 36.679,-4.301"
   style="fill:#cccccc;fill-opacity:1;fill-rule:nonzero;stroke:none"
   id="path3011" /><path
   d="m 778.359,861.215 c 8.942,-11.442 7.032,-28.09 -4.257,-37.152 -11.293,-9.059 -27.692,-7.149 -36.641,4.3 -8.981,11.442 -7.07,28.078 4.219,37.149 11.332,9.062 27.73,7.152 36.679,-4.297 z"
   style="fill:none;stroke:#231f20;stroke-opacity:1;stroke-width:4.08454;stroke-linecap:butt;stroke-linejoin:miter;stroke-miterlimit:4;stroke-dasharray:none"
   id="path3013" /><path
   d="m 662.59141,861.211 c 8.942,-11.441 7.032,-28.082 -4.257,-37.141 -11.289,-9.07 -27.692,-7.148 -36.68,4.289 -8.941,11.45 -7.031,28.09 4.258,37.153 11.293,9.058 27.73,7.148 36.679,-4.301"
   style="fill:#cccccc;fill-opacity:1;fill-rule:nonzero;stroke:none"
   id="path3015"
   inkscape:connector-curvature="0" /><path
   d="m 662.59141,861.215 c 8.942,-11.442 7.032,-28.09 -4.257,-37.152 -11.289,-9.059 -27.692,-7.149 -36.68,4.3 -8.941,11.442 -7.031,28.078 4.258,37.149 11.293,9.062 27.73,7.152 36.679,-4.297 z"
   style="fill:none;stroke:#231f20;stroke-width:4.08453989;stroke-linecap:butt;stroke-linejoin:miter;stroke-miterlimit:4;stroke-opacity:1;stroke-dasharray:none"
   id="path3017"
   inkscape:connector-curvature="0" /><path
   d="m 384.84,864.07 c 8.949,-11.449 7.07,-28.09 -4.25,-37.148 -11.289,-9.07 -27.699,-7.152 -36.641,4.289 -8.949,11.488 -7.07,28.09 4.25,37.148 11.289,9.102 27.699,7.153 36.641,-4.289"
   style="fill:#000000;fill-opacity:1;fill-rule:nonzero;stroke:none"
   id="path3019" /><path
   d="m 384.84,864.063 c 8.949,-11.438 7.07,-28.079 -4.25,-37.149 -11.289,-9.062 -27.699,-7.141 -36.641,4.301 -8.949,11.476 -7.07,28.09 4.25,37.148 11.289,9.102 27.699,7.149 36.641,-4.3 z"
   style="fill:none;stroke:#231f20;stroke-opacity:1;stroke-width:4.08454;stroke-linecap:butt;stroke-linejoin:miter;stroke-miterlimit:4;stroke-dasharray:none"
   id="path3021" /><path
   d="m 267.07,864.07 c 8.981,-11.449 7.071,-28.09 -4.218,-37.148 -11.332,-9.07 -27.731,-7.152 -36.68,4.289 -8.942,11.488 -7.031,28.09 4.258,37.148 11.289,9.102 27.691,7.153 36.64,-4.289"
   style="fill:#ffffff;fill-opacity:1;fill-rule:nonzero;stroke:none"
   id="path3023" /><path
   d="m 267.07,864.063 c 8.981,-11.438 7.071,-28.079 -4.218,-37.149 -11.332,-9.062 -27.731,-7.141 -36.68,4.301 -8.942,11.476 -7.031,28.09 4.258,37.148 11.289,9.102 27.691,7.149 36.64,-4.3 z"
   style="fill:none;stroke:#231f20;stroke-opacity:1;stroke-width:4.08454;stroke-linecap:butt;stroke-linejoin:miter;stroke-miterlimit:4;stroke-dasharray:none"
   id="path3025" /><path
   d="m 1208.87,861.211 c 8.94,-11.441 7.03,-28.082 -4.26,-37.141 -11.29,-9.07 -27.7,-7.148 -36.64,4.289 -8.95,11.45 -7.07,28.09 4.22,37.153 11.33,9.058 27.73,7.148 36.68,-4.301"
   style="fill:#000000;fill-opacity:1;fill-rule:nonzero;stroke:none"
   id="path3027" /><path
   d="m 1208.87,861.215 c 8.94,-11.442 7.03,-28.09 -4.26,-37.152 -11.29,-9.059 -27.7,-7.149 -36.64,4.3 -8.95,11.442 -7.07,28.078 4.22,37.149 11.33,9.062 27.73,7.152 36.68,-4.297 z"
   style="fill:none;stroke:#231f20;stroke-opacity:1;stroke-width:4.08454;stroke-linecap:butt;stroke-linejoin:miter;stroke-miterlimit:4;stroke-dasharray:none"
   id="path3029" /><path
   d="m 1350.08,864.07 c 8.94,-11.449 7.03,-28.09 -4.26,-37.148 -11.29,-9.07 -27.7,-7.152 -36.68,4.289 -8.94,11.488 -7.03,28.09 4.26,37.148 11.29,9.102 27.73,7.153 36.68,-4.289"
   style="fill:#000000;fill-opacity:1;fill-rule:nonzero;stroke:none"
   id="path3031" /><path
   d="m 1350.08,864.063 c 8.94,-11.438 7.03,-28.079 -4.26,-37.149 -11.29,-9.062 -27.7,-7.141 -36.68,4.301 -8.94,11.476 -7.03,28.09 4.26,37.148 11.29,9.102 27.73,7.149 36.68,-4.3 z"
   style="fill:none;stroke:#231f20;stroke-opacity:1;stroke-width:4.08454;stroke-linecap:butt;stroke-linejoin:miter;stroke-miterlimit:4;stroke-dasharray:none"
   id="path3033" /><path
   d="m 1560.86,864.07 c 8.94,-11.449 7.03,-28.09 -4.26,-37.148 -11.29,-9.07 -27.69,-7.152 -36.68,4.289 -8.94,11.488 -7.03,28.09 4.26,37.148 11.29,9.102 27.73,7.153 36.68,-4.289"
   style="fill:#ffffff;fill-opacity:1;fill-rule:nonzero;stroke:none"
   id="path3035" /><path
   d="m 1560.86,864.063 c 8.94,-11.438 7.03,-28.079 -4.26,-37.149 -11.29,-9.062 -27.69,-7.141 -36.68,4.301 -8.94,11.476 -7.03,28.09 4.26,37.148 11.29,9.102 27.73,7.149 36.68,-4.3 z"
   style="fill:none;stroke:#231f20;stroke-opacity:1;stroke-width:4.08454;stroke-linecap:butt;stroke-linejoin:miter;stroke-miterlimit:4;stroke-dasharray:none"
   id="path3037" /><path
   d="m 151.328,829.031 c 10.152,10.391 10.082,27.11 -0.156,37.379 -10.231,10.309 -26.762,10.231 -36.91,-0.16 -10.16,-10.352 -10.082,-27.109 0.148,-37.379 10.238,-10.269 26.762,-10.199 36.918,0.16"
   style="fill:#ffffff;fill-opacity:1;fill-rule:nonzero;stroke:none"
   id="path3039" /><path
   d="m 151.328,829.023 c 10.152,10.391 10.082,27.11 -0.156,37.391 -10.231,10.309 -26.762,10.231 -36.91,-0.16 -10.16,-10.352 -10.082,-27.109 0.148,-37.379 10.238,-10.281 26.762,-10.203 36.918,0.148 z"
   style="fill:none;stroke:#231f20;stroke-opacity:1;stroke-width:4.08454;stroke-linecap:butt;stroke-linejoin:miter;stroke-miterlimit:4;stroke-dasharray:none"
   id="path3041" /><path
   d="m 1459.38,864.07 c 8.98,-11.449 7.07,-28.09 -4.22,-37.148 -11.33,-9.07 -27.74,-7.152 -36.68,4.289 -8.95,11.488 -7.03,28.09 4.25,37.148 11.29,9.102 27.7,7.153 36.65,-4.289"
   style="fill:#ffffff;fill-opacity:1;fill-rule:nonzero;stroke:none"
   id="path3043" /><path
   d="m 1459.38,864.063 c 8.98,-11.438 7.07,-28.079 -4.22,-37.149 -11.33,-9.062 -27.74,-7.141 -36.68,4.301 -8.95,11.476 -7.03,28.09 4.25,37.148 11.29,9.102 27.7,7.149 36.65,-4.3 z"
   style="fill:none;stroke:#231f20;stroke-opacity:1;stroke-width:4.08454;stroke-linecap:butt;stroke-linejoin:miter;stroke-miterlimit:4;stroke-dasharray:none"
   id="path3045" /><path
   d="m 535.16,861.211 c 8.942,-11.441 7.031,-28.082 -4.262,-37.141 -11.289,-9.07 -27.699,-7.148 -36.636,4.289 -8.953,11.45 -7.071,28.09 4.218,37.153 11.321,9.058 27.731,7.148 36.68,-4.301"
   style="fill:#000000;fill-opacity:1;fill-rule:nonzero;stroke:none"
   id="path3047" /><path
   d="m 535.16,861.215 c 8.942,-11.442 7.031,-28.09 -4.262,-37.152 -11.289,-9.059 -27.699,-7.149 -36.636,4.3 -8.953,11.442 -7.071,28.078 4.218,37.149 11.321,9.062 27.731,7.152 36.68,-4.297 z"
   style="fill:none;stroke:#231f20;stroke-opacity:1;stroke-width:4.08454;stroke-linecap:butt;stroke-linejoin:miter;stroke-miterlimit:4;stroke-dasharray:none"
   id="path3049" /><path
   d="m 674.41,603.828 c 8.871,11.332 7.11,27.934 -3.98,37.031 -11.051,9.141 -27.27,7.379 -36.168,-3.937 -8.871,-11.332 -7.114,-27.934 3.976,-37.031 11.063,-9.153 27.274,-7.391 36.172,3.937"
   style="fill:#000000;fill-opacity:1;fill-rule:nonzero;stroke:none"
   id="path3051" /><path
   d="m 674.41,603.832 c 8.871,11.332 7.11,27.93 -3.98,37.031 -11.051,9.141 -27.27,7.379 -36.168,-3.949 -8.871,-11.32 -7.114,-27.93 3.976,-37.031 11.063,-9.141 27.274,-7.379 36.172,3.949 z"
   style="fill:none;stroke:#231f20;stroke-opacity:1;stroke-width:4.04748;stroke-linecap:butt;stroke-linejoin:miter;stroke-miterlimit:4;stroke-dasharray:none"
   id="path3053" /><path
   d="m 640.738,88.5195 c 8.871,11.3321 7.114,27.8905 -3.976,37.0315 -11.063,9.14 -27.274,7.34 -36.172,-3.949 -8.871,-11.321 -7.11,-27.9301 3.98,-37.0707 11.051,-9.1016 27.27,-7.3399 36.168,3.9882"
   style="fill:#000000;fill-opacity:1;fill-rule:nonzero;stroke:none"
   id="path3055" /><path
   d="m 640.738,88.5117 c 8.871,11.3321 7.114,27.9023 -3.976,37.0433 -11.063,9.136 -27.274,7.34 -36.172,-3.953 -8.871,-11.329 -7.11,-27.9301 3.98,-37.0668 11.051,-9.1016 27.27,-7.3438 36.168,3.9765 z"
   style="fill:none;stroke:#231f20;stroke-opacity:1;stroke-width:4.04748;stroke-linecap:butt;stroke-linejoin:miter;stroke-miterlimit:4;stroke-dasharray:none"
   id="path3057" /><path
   d="m 564.77,186.641 c 8.902,11.328 7.109,27.89 -3.95,37.031 -11.09,9.148 -27.3,7.348 -36.172,-3.981 -8.91,-11.332 -7.148,-27.89 3.942,-37.031 11.101,-9.14 27.269,-7.34 36.18,3.981"
   style="fill:#000000;fill-opacity:1;fill-rule:nonzero;stroke:none"
   id="path3059" /><path
   d="m 564.77,186.645 c 8.902,11.328 7.109,27.89 -3.95,37.027 -11.09,9.141 -27.3,7.34 -36.172,-3.981 -8.91,-11.328 -7.148,-27.886 3.942,-37.027 11.101,-9.152 27.269,-7.351 36.18,3.981 z"
   style="fill:none;stroke:#231f20;stroke-opacity:1;stroke-width:4.04748;stroke-linecap:butt;stroke-linejoin:miter;stroke-miterlimit:4;stroke-dasharray:none"
   id="path3061" /><path
   d="m 530.898,298.641 c 8.903,11.32 7.153,27.89 -3.949,37.031 -11.09,9.137 -27.258,7.34 -36.168,-3.953 -8.902,-11.328 -7.109,-27.93 3.949,-37.071 11.09,-9.097 27.301,-7.339 36.168,3.993"
   style="fill:#000000;fill-opacity:1;fill-rule:nonzero;stroke:none"
   id="path3063" /><path
   d="m 530.898,298.633 c 8.903,11.332 7.153,27.89 -3.949,37.031 -11.09,9.141 -27.258,7.348 -36.168,-3.941 -8.902,-11.328 -7.109,-27.93 3.949,-37.071 11.09,-9.097 27.301,-7.347 36.168,3.981 z"
   style="fill:none;stroke:#231f20;stroke-opacity:1;stroke-width:4.04748;stroke-linecap:butt;stroke-linejoin:miter;stroke-miterlimit:4;stroke-dasharray:none"
   id="path3065" /><path
   d="m 541.559,419.852 c 8.91,11.32 7.152,27.929 -3.938,37.027 -11.062,9.141 -27.269,7.383 -36.172,-3.949 -8.871,-11.328 -7.109,-27.891 3.942,-37.032 11.089,-9.136 27.308,-7.339 36.168,3.954"
   style="fill:#000000;fill-opacity:1;fill-rule:nonzero;stroke:none"
   id="path3067" /><path
   d="m 541.559,419.844 c 8.91,11.328 7.152,27.929 -3.938,37.031 -11.062,9.137 -27.269,7.387 -36.172,-3.941 -8.871,-11.332 -7.109,-27.891 3.942,-37.032 11.089,-9.14 27.308,-7.347 36.168,3.942 z"
   style="fill:none;stroke:#231f20;stroke-opacity:1;stroke-width:4.04748;stroke-linecap:butt;stroke-linejoin:miter;stroke-miterlimit:4;stroke-dasharray:none"
   id="path3069" /><path
   d="m 587.891,522.27 c 8.91,11.332 7.109,27.929 -3.942,37.031 -11.097,9.14 -27.269,7.379 -36.179,-3.949 -8.899,-11.321 -7.149,-27.93 3.949,-37.032 11.09,-9.14 27.261,-7.379 36.172,3.95"
   style="fill:#000000;fill-opacity:1;fill-rule:nonzero;stroke:none"
   id="path3071" /><path
   d="m 587.891,522.273 c 8.91,11.321 7.109,27.918 -3.942,37.032 -11.097,9.136 -27.269,7.379 -36.179,-3.953 -8.899,-11.329 -7.149,-27.93 3.949,-37.028 11.09,-9.14 27.261,-7.383 36.172,3.949 z"
   style="fill:none;stroke:#231f20;stroke-opacity:1;stroke-width:4.04748;stroke-linecap:butt;stroke-linejoin:miter;stroke-miterlimit:4;stroke-dasharray:none"
   id="path3073" /><path
   d="M 896.211,695.902 1019.34,819.805"
   style="fill:none;stroke:#ef0000;stroke-opacity:1;stroke-width:1.6;stroke-linecap:butt;stroke-linejoin:miter;stroke-miterlimit:4;stroke-dasharray:19.2,19.2;stroke-dashoffset:0"
   id="path3075" /><path
   d="m 980.98,28.3984 c -9.89,10.4727 -9.57,27.1524 0.661,37.2305 10.238,10.082 26.519,9.7227 36.409,-0.7773 9.84,-10.5118 9.53,-27.1524 -0.71,-37.2305 -10.23,-10.082 -26.52,-9.7305 -36.36,0.7773"
   style="fill:#000000;fill-opacity:1;fill-rule:nonzero;stroke:none"
   id="path3077" /><path
   d="m 980.98,28.4023 c -9.89,10.4727 -9.57,27.1524 0.661,37.2227 10.238,10.0781 26.519,9.7266 36.409,-0.7812 9.84,-10.5 9.53,-27.1485 -0.71,-37.2188 -10.23,-10.082 -26.52,-9.7305 -36.36,0.7773 z"
   style="fill:none;stroke:#231f20;stroke-opacity:1;stroke-width:4.04748;stroke-linecap:butt;stroke-linejoin:miter;stroke-miterlimit:4;stroke-dasharray:none"
   id="path3079" /><path
   d="m 1015.43,611.57 c -9.84,10.461 -9.53,27.141 0.7,37.219 10.24,10.082 26.49,9.731 36.37,-0.777 9.84,-10.512 9.53,-27.153 -0.7,-37.231 -10.24,-10.07 -26.53,-9.722 -36.37,0.789"
   style="fill:#000000;fill-opacity:1;fill-rule:nonzero;stroke:none"
   id="path3081" /><path
   d="m 1015.43,611.563 c -9.84,10.472 -9.53,27.152 0.7,37.23 10.24,10.082 26.49,9.719 36.37,-0.781 9.84,-10.508 9.53,-27.149 -0.7,-37.227 -10.24,-10.082 -26.53,-9.73 -36.37,0.778 z"
   style="fill:none;stroke:#231f20;stroke-opacity:1;stroke-width:4.04748;stroke-linecap:butt;stroke-linejoin:miter;stroke-miterlimit:4;stroke-dasharray:none"
   id="path3083" /><path
   d="m 1092.54,96.25 c -9.84,10.512 -9.53,27.148 0.7,37.23 10.24,10.079 26.53,9.731 36.37,-0.781 9.84,-10.508 9.53,-27.148 -0.66,-37.2302 -10.24,-10.0782 -26.57,-9.7305 -36.41,0.7812"
   style="fill:#000000;fill-opacity:1;fill-rule:nonzero;stroke:none"
   id="path3085" /><path
   d="m 1092.54,96.2539 c -9.84,10.5081 -9.53,27.1481 0.7,37.2301 10.24,10.071 26.53,9.719 36.37,-0.789 9.84,-10.504 9.53,-27.14 -0.66,-37.2223 -10.24,-10.0782 -26.57,-9.7305 -36.41,0.7812 z"
   style="fill:none;stroke:#231f20;stroke-opacity:1;stroke-width:4.04748;stroke-linecap:butt;stroke-linejoin:miter;stroke-miterlimit:4;stroke-dasharray:none"
   id="path3087" /><path
   d="m 1160.27,203.172 c -9.88,10.469 -9.57,27.148 0.67,37.219 10.23,10.078 26.52,9.73 36.4,-0.782 9.85,-10.507 9.54,-27.148 -0.7,-37.218 -10.23,-10.082 -26.52,-9.731 -36.37,0.781"
   style="fill:#000000;fill-opacity:1;fill-rule:nonzero;stroke:none"
   id="path3089" /><path
   d="m 1160.27,203.164 c -9.88,10.469 -9.57,27.149 0.67,37.231 10.23,10.078 26.52,9.73 36.4,-0.782 9.85,-10.511 9.54,-27.148 -0.7,-37.23 -10.23,-10.078 -26.52,-9.719 -36.37,0.781 z"
   style="fill:none;stroke:#231f20;stroke-opacity:1;stroke-width:4.04748;stroke-linecap:butt;stroke-linejoin:miter;stroke-miterlimit:4;stroke-dasharray:none"
   id="path3091" /><path
   d="m 1186.8,317.969 c -9.85,10.511 -9.53,27.191 0.7,37.269 10.23,10.043 26.52,9.684 36.37,-0.777 9.84,-10.512 9.57,-27.191 -0.67,-37.27 -10.23,-10.043 -26.52,-9.691 -36.4,0.778"
   style="fill:#000000;fill-opacity:1;fill-rule:nonzero;stroke:none"
   id="path3093" /><path
   d="m 1186.8,317.973 c -9.85,10.511 -9.53,27.191 0.7,37.261 10.23,10.039 26.52,9.688 36.37,-0.781 9.84,-10.512 9.57,-27.18 -0.67,-37.262 -10.23,-10.039 -26.52,-9.687 -36.4,0.782 z"
   style="fill:none;stroke:#231f20;stroke-opacity:1;stroke-width:4.04748;stroke-linecap:butt;stroke-linejoin:miter;stroke-miterlimit:4;stroke-dasharray:none"
   id="path3095" /><path
   d="m 1171.13,431.141 c -9.84,10.461 -9.53,27.14 0.71,37.218 10.23,10.082 26.52,9.731 36.36,-0.781 9.85,-10.508 9.57,-27.148 -0.66,-37.226 -10.24,-10.071 -26.52,-9.723 -36.41,0.789"
   style="fill:#000000;fill-opacity:1;fill-rule:nonzero;stroke:none"
   id="path3097" /><path
   d="m 1171.13,431.133 c -9.84,10.469 -9.53,27.152 0.71,37.23 10.23,10.078 26.52,9.731 36.36,-0.781 9.85,-10.508 9.57,-27.148 -0.66,-37.23 -10.24,-10.079 -26.52,-9.727 -36.41,0.781 z"
   style="fill:none;stroke:#231f20;stroke-opacity:1;stroke-width:4.04748;stroke-linecap:butt;stroke-linejoin:miter;stroke-miterlimit:4;stroke-dasharray:none"
   id="path3099" /><path
   d="m 1110.35,528.238 c -9.88,10.512 -9.57,27.192 0.67,37.231 10.23,10.082 26.52,9.73 36.36,-0.739 9.89,-10.511 9.57,-27.191 -0.66,-37.269 -10.24,-10.039 -26.52,-9.723 -36.37,0.777"
   style="fill:#000000;fill-opacity:1;fill-rule:nonzero;stroke:none"
   id="path3101" /><path
   d="m 1110.35,528.242 c -9.88,10.512 -9.57,27.192 0.67,37.231 10.23,10.082 26.52,9.718 36.36,-0.739 9.89,-10.511 9.57,-27.191 -0.66,-37.269 -10.24,-10.043 -26.52,-9.731 -36.37,0.777 z"
   style="fill:none;stroke:#231f20;stroke-opacity:1;stroke-width:4.04748;stroke-linecap:butt;stroke-linejoin:miter;stroke-miterlimit:4;stroke-dasharray:none"
   id="path3103" /><path
   d="m 854.531,24.8086 c 1.367,1.7617 1.09,4.2617 -0.621,5.6602 -1.719,1.371 -4.262,1.1015 -5.629,-0.6172 -1.371,-1.7227 -1.09,-4.2618 0.629,-5.6328 1.711,-1.3985 4.211,-1.129 5.621,0.5898"
   style="fill:#000000;fill-opacity:1;fill-rule:nonzero;stroke:none"
   id="path3105" /><path
   d="m 854.531,24.8047 c 1.367,1.7578 1.09,4.2578 -0.621,5.668 -1.719,1.3711 -4.262,1.0898 -5.629,-0.6289 -1.371,-1.7188 -1.09,-4.25 0.629,-5.6211 1.711,-1.4102 4.211,-1.1289 5.621,0.582 z"
   style="fill:none;stroke:#231f20;stroke-opacity:1;stroke-width:0.622932;stroke-linecap:butt;stroke-linejoin:miter;stroke-miterlimit:4;stroke-dasharray:none"
   id="path3107" /><path
   d="m 874.73,25.1211 c 1.399,1.7187 1.129,4.2187 -0.628,5.6172 -1.723,1.4101 -4.223,1.1406 -5.622,-0.6172 -1.371,-1.7227 -1.101,-4.2227 0.622,-5.6328 1.718,-1.3594 4.257,-1.0899 5.628,0.6328"
   style="fill:#000000;fill-opacity:1;fill-rule:nonzero;stroke:none"
   id="path3109" /><path
   d="m 874.73,25.125 c 1.399,1.7188 1.129,4.2188 -0.628,5.6172 -1.723,1.4101 -4.223,1.1328 -5.622,-0.6172 -1.371,-1.7227 -1.101,-4.2227 0.622,-5.6328 1.718,-1.3672 4.257,-1.0899 5.628,0.6328 z"
   style="fill:none;stroke:#231f20;stroke-opacity:1;stroke-width:0.622932;stroke-linecap:butt;stroke-linejoin:miter;stroke-miterlimit:4;stroke-dasharray:none"
   id="path3111" /><path
   d="m 895.309,26.0195 c 1.41,1.7188 1.14,4.2618 -0.618,5.6211 -1.722,1.4102 -4.222,1.1407 -5.632,-0.582 -1.36,-1.7578 -1.09,-4.2578 0.632,-5.668 1.719,-1.3593 4.258,-1.0898 5.618,0.6289"
   style="fill:#000000;fill-opacity:1;fill-rule:nonzero;stroke:none"
   id="path3113" /><path
   d="m 895.309,26.0117 c 1.41,1.7227 1.14,4.2617 -0.618,5.6328 -1.722,1.4102 -4.222,1.1289 -5.632,-0.5898 -1.36,-1.75 -1.09,-4.25 0.632,-5.6602 1.719,-1.3711 4.258,-1.0898 5.618,0.6172 z"
   style="fill:none;stroke:#231f20;stroke-opacity:1;stroke-width:0.622932;stroke-linecap:butt;stroke-linejoin:miter;stroke-miterlimit:4;stroke-dasharray:none"
   id="path3115" /><path
   d="m 418.281,853.949 c 1.449,1.68 1.207,4.223 -0.472,5.66 -1.68,1.45 -4.219,1.211 -5.618,-0.468 -1.453,-1.68 -1.211,-4.219 0.469,-5.661 1.68,-1.41 4.219,-1.21 5.621,0.469"
   style="fill:#000000;fill-opacity:1;fill-rule:nonzero;stroke:none"
   id="path3117" /><path
   d="m 418.285,853.949 c 1.445,1.68 1.211,4.211 -0.472,5.66 -1.68,1.446 -4.219,1.215 -5.625,-0.472 -1.442,-1.672 -1.211,-4.211 0.468,-5.66 1.68,-1.399 4.215,-1.211 5.629,0.472 z"
   style="fill:none;stroke:#231f20;stroke-opacity:1;stroke-width:0.622931;stroke-linecap:butt;stroke-linejoin:miter;stroke-miterlimit:4;stroke-dasharray:none"
   id="path3119" /><path
   d="m 438.52,853.711 c 1.402,1.719 1.21,4.219 -0.469,5.668 -1.723,1.441 -4.223,1.211 -5.672,-0.469 -1.399,-1.68 -1.207,-4.219 0.473,-5.672 1.679,-1.398 4.218,-1.207 5.668,0.473"
   style="fill:#000000;fill-opacity:1;fill-rule:nonzero;stroke:none"
   id="path3121" /><path
   d="m 438.512,853.715 c 1.406,1.719 1.215,4.223 -0.469,5.66 -1.715,1.449 -4.211,1.211 -5.66,-0.469 -1.41,-1.676 -1.211,-4.215 0.472,-5.66 1.676,-1.402 4.211,-1.211 5.657,0.469 z"
   style="fill:none;stroke:#231f20;stroke-opacity:1;stroke-width:0.622931;stroke-linecap:butt;stroke-linejoin:miter;stroke-miterlimit:4;stroke-dasharray:none"
   id="path3123" /><path
   d="m 459.102,854.102 c 1.449,1.718 1.207,4.218 -0.473,5.668 -1.68,1.441 -4.219,1.21 -5.617,-0.469 -1.453,-1.68 -1.25,-4.223 0.468,-5.66 1.68,-1.411 4.219,-1.219 5.622,0.461"
   style="fill:#000000;fill-opacity:1;fill-rule:nonzero;stroke:none"
   id="path3125" /><path
   d="m 459.105,854.105 c 1.438,1.719 1.211,4.215 -0.468,5.661 -1.684,1.449 -4.223,1.214 -5.629,-0.469 -1.442,-1.672 -1.246,-4.223 0.472,-5.66 1.672,-1.41 4.211,-1.211 5.625,0.468 z"
   style="fill:none;stroke:#231f20;stroke-opacity:1;stroke-width:0.622931;stroke-linecap:butt;stroke-linejoin:miter;stroke-miterlimit:4;stroke-dasharray:none"
   id="path3127" /><path
   d="m 1277.42,857.969 c -1.44,-1.68 -1.29,-4.219 0.39,-5.66 1.64,-1.489 4.18,-1.289 5.63,0.351 1.44,1.68 1.29,4.219 -0.35,5.66 -1.68,1.45 -4.22,1.289 -5.67,-0.351"
   style="fill:#000000;fill-opacity:1;fill-rule:nonzero;stroke:none"
   id="path3129" /><path
   d="m 1277.42,857.973 c -1.44,-1.684 -1.29,-4.223 0.39,-5.664 1.65,-1.481 4.19,-1.289 5.63,0.351 1.44,1.676 1.29,4.215 -0.35,5.668 -1.68,1.442 -4.22,1.281 -5.67,-0.355 z"
   style="fill:none;stroke:#231f20;stroke-opacity:1;stroke-width:0.622931;stroke-linecap:butt;stroke-linejoin:miter;stroke-miterlimit:4;stroke-dasharray:none"
   id="path3131" /><path
   d="m 1257.23,858.52 c -1.49,-1.68 -1.29,-4.18 0.35,-5.668 1.68,-1.442 4.22,-1.282 5.66,0.386 1.45,1.653 1.29,4.184 -0.39,5.672 -1.64,1.442 -4.18,1.289 -5.62,-0.39"
   style="fill:#000000;fill-opacity:1;fill-rule:nonzero;stroke:none"
   id="path3133" /><path
   d="m 1257.22,858.52 c -1.48,-1.688 -1.28,-4.18 0.35,-5.668 1.69,-1.438 4.23,-1.289 5.67,0.398 1.45,1.633 1.29,4.172 -0.38,5.656 -1.65,1.449 -4.18,1.289 -5.64,-0.386 z"
   style="fill:none;stroke:#231f20;stroke-opacity:1;stroke-width:0.622931;stroke-linecap:butt;stroke-linejoin:miter;stroke-miterlimit:4;stroke-dasharray:none"
   id="path3135" /><path
   d="m 1236.6,858.48 c -1.44,-1.679 -1.29,-4.218 0.39,-5.66 1.64,-1.449 4.18,-1.289 5.63,0.391 1.48,1.641 1.29,4.18 -0.35,5.66 -1.68,1.449 -4.18,1.289 -5.67,-0.391"
   style="fill:#000000;fill-opacity:1;fill-rule:nonzero;stroke:none"
   id="path3137" /><path
   d="m 1236.6,858.48 c -1.44,-1.683 -1.29,-4.222 0.4,-5.664 1.64,-1.449 4.17,-1.293 5.62,0.383 1.48,1.645 1.29,4.184 -0.35,5.668 -1.68,1.453 -4.18,1.289 -5.67,-0.387 z"
   style="fill:none;stroke:#231f20;stroke-opacity:1;stroke-width:0.622931;stroke-linecap:butt;stroke-linejoin:miter;stroke-miterlimit:4;stroke-dasharray:none"
   id="path3139" /><path
   d="M 891.559,692.895 891.25,823.242"
   style="fill:none;stroke:#ef0000;stroke-opacity:1;stroke-width:1.6;stroke-linecap:butt;stroke-linejoin:miter;stroke-miterlimit:4;stroke-dasharray:19.2,19.2;stroke-dashoffset:0"
   id="path3141" /><path
   d="M 791.91,696.254 765.391,820.273"
   style="fill:none;stroke:#ef0000;stroke-opacity:1;stroke-width:1.6;stroke-linecap:butt;stroke-linejoin:miter;stroke-miterlimit:4;stroke-dasharray:19.2,19.2;stroke-dashoffset:0"
   id="path3143" /><path
   d="M 791.25,700.004 633.359,817.234"
   style="fill:none;stroke:#ef0000;stroke-opacity:1;stroke-width:1.6;stroke-linecap:butt;stroke-linejoin:miter;stroke-miterlimit:4;stroke-dasharray:19.2,19.2;stroke-dashoffset:0"
   id="path3145" /><path
   d="m 673.949,646.914 213.86,172.188"
   style="fill:none;stroke:#ef0000;stroke-opacity:1;stroke-width:1.6;stroke-linecap:butt;stroke-linejoin:miter;stroke-miterlimit:4;stroke-dasharray:19.2,19.2;stroke-dashoffset:0"
   id="path3147" /><text
   id="text3173"
   transform="scale(1,-1)"
   x="677.31201"
   y="-568.48999"
   style="font-size:40px"><tspan
     id="tspan3175"
     y="-568.48999"
     x="677.31201"
     style="font-size:40px;font-variant:normal;font-weight:normal;writing-mode:lr-tb;fill:#000000;fill-opacity:1;fill-rule:nonzero;stroke:none;font-family:DejaVu Sans;-inkscape-font-specification:DejaVuSans">2</tspan></text>



<flowRoot
   transform="matrix(8,0,0,-8,56.410326,876.0398)"
   style="font-size:4px;font-style:normal;font-weight:normal;line-height:125%;letter-spacing:0px;word-spacing:0px;fill:#000000;fill-opacity:1;stroke:none;font-family:Sans"
   id="flowRoot3289"
   xml:space="preserve"><flowRegion
     id="flowRegion3291"><rect
       y="8.1230831"
       x="-0.94017208"
       height="9.8718071"
       width="14.102581"
       id="rect3293" /></flowRegion><flowPara
     id="flowPara3295" /></flowRoot><g
   id="g3197"
   transform="matrix(0.235589,0.743324,0.775348,-0.245739,0,0)"><path
     d="m 1179.93,782.704 c 51.1,229.616 -95.18,456.796 -326.792,507.476 -231.599,50.67 -460.8,-94.36 -511.898,-323.983 -51.116,-229.615 95.218,-456.814 326.831,-507.491 192.198,-42.071 388.649,50.829 476.639,225.42"
     style="fill:none;stroke:#000000;stroke-opacity:1;stroke-width:6.02724;stroke-linecap:round;stroke-linejoin:bevel;stroke-miterlimit:4;stroke-dasharray:none"
     id="path3199" /></g><path
   d="m 1624.22,825.789 36.0898,0 0,40.6602 -36.0898,0 0,-40.6602 z"
   style="fill:#000000;fill-opacity:1;fill-rule:nonzero;stroke:none"
   id="path3221" /><path
   d="m 1624.22,825.785 36.0898,0 0,40.6563 -36.0898,0 0,-40.6563 z"
   style="fill:none;stroke:#000000;stroke-opacity:1;stroke-width:3.3651;stroke-linecap:round;stroke-linejoin:bevel;stroke-miterlimit:4;stroke-dasharray:none"
   id="path3223" /><path
   d="m 1.60156,826.801 36.0898,0 0,40.6602 -36.0898,0 0,-40.6602 z"
   style="fill:#000000;fill-opacity:1;fill-rule:nonzero;stroke:none"
   id="path3225" /><path
   d="m 1.60156,826.805 36.0898,0 0,40.6602 -36.0898,0 0,-40.6602 z"
   style="fill:none;stroke:#000000;stroke-opacity:1;stroke-width:3.3651;stroke-linecap:round;stroke-linejoin:bevel;stroke-miterlimit:4;stroke-dasharray:none"
   id="path3227" /><path
   d="m 774.449,659.77 36.0898,0 0,40.6602 -36.0898,0 0,-40.6602 z"
   style="fill:#000000;fill-opacity:1;fill-rule:nonzero;stroke:none"
   id="path3229" /><path
   d="m 774.449,659.773 36.0898,0 0,40.6602 -36.0898,0 0,-40.6602 z"
   style="fill:none;stroke:#000000;stroke-opacity:1;stroke-width:3.3651;stroke-linecap:round;stroke-linejoin:bevel;stroke-miterlimit:4;stroke-dasharray:none"
   id="path3231" /><path
   d="m 869.34,659.77 36.0898,0 0,40.6602 -36.0898,0 0,-40.6602 z"
   style="fill:#000000;fill-opacity:1;fill-rule:nonzero;stroke:none"
   id="path3233" /><path
   d="m 869.34,659.773 36.0898,0 0,40.6602 -36.0898,0 0,-40.6602 z"
   style="fill:none;stroke:#000000;stroke-opacity:1;stroke-width:3.3651;stroke-linecap:round;stroke-linejoin:bevel;stroke-miterlimit:4;stroke-dasharray:none"
   id="path3235" /><path
   d="M 1027.03,652.734 770.512,821.055"
   style="fill:none;stroke:#ef0000;stroke-opacity:1;stroke-width:1.6;stroke-linecap:butt;stroke-linejoin:miter;stroke-miterlimit:4;stroke-dasharray:19.2,19.2;stroke-dashoffset:0"
   id="path3237" /><text
   xml:space="preserve"
   style="font-size:40px;font-style:normal;font-weight:normal;line-height:125%;letter-spacing:0px;word-spacing:0px;fill:#000000;fill-opacity:1;stroke:none;font-family:Sans"
   x="9.1855221"
   y="-892.36987"
   id="text3327"
   sodipodi:linespacing="125%"
   transform="scale(1,-1)"><tspan
     sodipodi:role="line"
     id="tspan3329"
     x="9.1855221"
     y="-892.36987">1</tspan></text>

<text
   xml:space="preserve"
   style="font-size:40px;font-style:normal;font-weight:normal;line-height:125%;letter-spacing:0px;word-spacing:0px;fill:#000000;fill-opacity:1;stroke:none;font-family:Sans"
   x="123.043"
   y="-892.15894"
   id="text3331"
   sodipodi:linespacing="125%"
   transform="scale(1,-1)"><tspan
     sodipodi:role="line"
     id="tspan3333"
     x="123.043"
     y="-892.15894">2</tspan></text>

<text
   xml:space="preserve"
   style="font-size:40px;font-style:normal;font-weight:normal;line-height:125%;letter-spacing:0px;word-spacing:0px;fill:#000000;fill-opacity:1;stroke:none;font-family:Sans"
   x="236.51979"
   y="-892.3855"
   id="text3335"
   sodipodi:linespacing="125%"
   transform="scale(1,-1)"><tspan
     sodipodi:role="line"
     id="tspan3337"
     x="236.51979"
     y="-892.3855">3</tspan></text>

<text
   xml:space="preserve"
   style="font-size:40px;font-style:normal;font-weight:normal;line-height:125%;letter-spacing:0px;word-spacing:0px;fill:#000000;fill-opacity:1;stroke:none;font-family:Sans"
   x="617.66235"
   y="-893.64331"
   id="text3339"
   sodipodi:linespacing="125%"
   transform="scale(1,-1)"><tspan
     sodipodi:role="line"
     id="tspan3341"
     x="617.66235"
     y="-893.64331">L/2</tspan></text>

<text
   xml:space="preserve"
   style="font-size:40px;font-style:normal;font-weight:normal;line-height:125%;letter-spacing:0px;word-spacing:0px;fill:#000000;fill-opacity:1;stroke:none;font-family:Sans"
   x="729.3139"
   y="-895.56818"
   id="text3343"
   sodipodi:linespacing="125%"
   transform="scale(1,-1)"><tspan
     sodipodi:role="line"
     id="tspan3345"
     x="729.3139"
     y="-895.56818">L/2+1</tspan></text>

<text
   xml:space="preserve"
   style="font-size:40px;font-style:normal;font-weight:normal;line-height:125%;letter-spacing:0px;word-spacing:0px;fill:#000000;fill-opacity:1;stroke:none;font-family:Sans"
   x="976.14301"
   y="-895.41608"
   id="text3347"
   sodipodi:linespacing="125%"
   transform="scale(1,-1)"><tspan
     sodipodi:role="line"
     id="tspan3349"
     x="976.14301"
     y="-895.41608">L/2+3</tspan></text>

<text
   xml:space="preserve"
   style="font-size:40px;font-style:normal;font-weight:normal;line-height:125%;letter-spacing:0px;word-spacing:0px;fill:#000000;fill-opacity:1;stroke:none;font-family:Sans"
   x="776.48877"
   y="-621.36835"
   id="text3351"
   sodipodi:linespacing="125%"
   transform="scale(1,-1)"><tspan
     sodipodi:role="line"
     id="tspan3353"
     x="776.48877"
     y="-621.36835">1</tspan></text>

</g></g></svg>