<?xml version="1.0" encoding="UTF-8" standalone="no"?>
<!-- Created with Inkscape (http://www.inkscape.org/) -->

<svg
   xmlns:dc="http://purl.org/dc/elements/1.1/"
   xmlns:cc="http://creativecommons.org/ns#"
   xmlns:rdf="http://www.w3.org/1999/02/22-rdf-syntax-ns#"
   xmlns:svg="http://www.w3.org/2000/svg"
   xmlns="http://www.w3.org/2000/svg"
   xmlns:sodipodi="http://sodipodi.sourceforge.net/DTD/sodipodi-0.dtd"
   xmlns:inkscape="http://www.inkscape.org/namespaces/inkscape"
   width="744.09448819"
   height="1052.3622047"
   id="svg3449"
   version="1.1"
   inkscape:version="0.48.2 r9819"
   sodipodi:docname="chainnew_v2.svg">
  <defs
     id="defs3451" />
  <sodipodi:namedview
     id="base"
     pagecolor="#ffffff"
     bordercolor="#666666"
     borderopacity="1.0"
     inkscape:pageopacity="0.0"
     inkscape:pageshadow="2"
     inkscape:zoom="4.6300614"
     inkscape:cx="276.39747"
     inkscape:cy="797.5822"
     inkscape:document-units="px"
     inkscape:current-layer="layer1"
     showgrid="false"
     inkscape:window-width="1920"
     inkscape:window-height="1032"
     inkscape:window-x="0"
     inkscape:window-y="0"
     inkscape:window-maximized="0" />
  <metadata
     id="metadata3454">
    <rdf:RDF>
      <cc:Work
         rdf:about="">
        <dc:format>image/svg+xml</dc:format>
        <dc:type
           rdf:resource="http://purl.org/dc/dcmitype/StillImage" />
        <dc:title />
      </cc:Work>
    </rdf:RDF>
  </metadata>
  <g
     inkscape:label="Layer 1"
     inkscape:groupmode="layer"
     id="layer1">
    <path
       inkscape:connector-curvature="0"
       d="m 204.45928,282.87391 159.47511,0"
       style="fill:none;stroke:#231f20;stroke-width:0.36451423;stroke-linecap:butt;stroke-linejoin:miter;stroke-miterlimit:4;stroke-opacity:1;stroke-dasharray:none"
       id="path118-9-5" />
    <path
       inkscape:connector-curvature="0"
       id="path3233-3-0"
       style="fill:#ffffff;fill-opacity:1;stroke:#231f20;stroke-width:0.34999999;stroke-linecap:butt;stroke-linejoin:miter;stroke-miterlimit:4;stroke-opacity:1;stroke-dasharray:none"
       d="m 347.98501,281.38992 c 0.81977,0.93468 0.72632,2.35685 -0.20836,3.17618 -0.93469,0.81977 -2.35685,0.72673 -3.17662,-0.20794 -0.81934,-0.93511 -0.7263,-2.35685 0.20837,-3.17661 0.93468,-0.81978 2.35726,-0.7263 3.17661,0.20837 z" />
    <path
       inkscape:connector-curvature="0"
       id="path3233-3-1"
       style="fill:#000000;fill-opacity:1;stroke:#231f20;stroke-width:0.34999999;stroke-linecap:butt;stroke-linejoin:miter;stroke-miterlimit:4;stroke-opacity:1;stroke-dasharray:none"
       d="m 300.91613,281.38988 c 0.81977,0.93468 0.7263,2.35685 -0.20837,3.17618 -0.93468,0.81977 -2.35684,0.72673 -3.17661,-0.20794 -0.81934,-0.93511 -0.7263,-2.35685 0.20837,-3.17661 0.93468,-0.81978 2.35726,-0.7263 3.17661,0.20837 z" />
    <path
       inkscape:connector-curvature="0"
       id="path3233-3-6"
       style="fill:#ffffff;fill-opacity:1;stroke:#231f20;stroke-width:0.34999999;stroke-linecap:butt;stroke-linejoin:miter;stroke-miterlimit:4;stroke-opacity:1;stroke-dasharray:none"
       d="m 332.29537,281.3899 c 0.81977,0.93468 0.7263,2.35685 -0.20837,3.17618 -0.93468,0.81977 -2.35684,0.72673 -3.17661,-0.20794 -0.81934,-0.93511 -0.7263,-2.35685 0.20837,-3.17661 0.93468,-0.81978 2.35726,-0.7263 3.17661,0.20837 z" />
    <path
       inkscape:connector-curvature="0"
       id="path3233-3-4"
       style="fill:#ffffff;fill-opacity:1;stroke:#231f20;stroke-width:0.34999999;stroke-linecap:butt;stroke-linejoin:miter;stroke-miterlimit:4;stroke-opacity:1;stroke-dasharray:none"
       d="m 222.46799,281.38988 c 0.81976,0.93468 0.7263,2.35685 -0.20838,3.17618 -0.93467,0.81977 -2.35683,0.72673 -3.17661,-0.20794 -0.81934,-0.93511 -0.7263,-2.35685 0.20838,-3.17661 0.93467,-0.81978 2.35726,-0.7263 3.17661,0.20837 z" />
    <path
       inkscape:connector-curvature="0"
       id="path3233-3-4-8"
       style="fill:#000000;fill-opacity:1;stroke:#231f20;stroke-width:0.35000268;stroke-linecap:butt;stroke-linejoin:miter;stroke-miterlimit:4;stroke-opacity:1;stroke-dasharray:none"
       d="m 269.53686,281.38989 c 0.81976,0.93469 0.7263,2.35689 -0.20837,3.17623 -0.93467,0.81978 -2.35683,0.72674 -3.17661,-0.20794 -0.81935,-0.93513 -0.72631,-2.35689 0.20837,-3.17666 0.93467,-0.8198 2.35726,-0.72631 3.17661,0.20837 z" />
    <path
       inkscape:connector-curvature="0"
       id="path3233-3-4-4"
       style="fill:#000000;stroke:#231f20;stroke-width:0.35000256;stroke-linecap:butt;stroke-linejoin:miter;stroke-miterlimit:4;stroke-opacity:1;stroke-dasharray:none"
       d="m 316.60579,281.38989 c 0.81975,0.9347 0.72629,2.35689 -0.20838,3.17622 -0.93468,0.81979 -2.35684,0.72675 -3.17661,-0.20793 -0.81935,-0.93513 -0.72631,-2.35688 0.20838,-3.17666 0.93467,-0.81979 2.35725,-0.72631 3.17661,0.20837 z" />
    <path
       inkscape:connector-curvature="0"
       id="path3233-3-8"
       style="fill:#ffffff;stroke:#231f20;stroke-width:0.35000288;stroke-linecap:butt;stroke-linejoin:miter;stroke-miterlimit:4;stroke-opacity:1;stroke-dasharray:none"
       d="m 238.15761,281.3899 c 0.81975,0.93469 0.72629,2.35688 -0.20838,3.17622 -0.93468,0.81978 -2.35684,0.72674 -3.17662,-0.20794 -0.81934,-0.93513 -0.7263,-2.35688 0.20838,-3.17666 0.93467,-0.8198 2.35726,-0.7263 3.17662,0.20838 z" />
    <path
       inkscape:connector-curvature="0"
       id="path3233-3-3"
       style="fill:#000000;stroke:#231f20;stroke-width:0.35000288;stroke-linecap:butt;stroke-linejoin:miter;stroke-miterlimit:4;stroke-opacity:1;stroke-dasharray:none"
       d="m 253.84724,281.3899 c 0.81975,0.93469 0.72629,2.35688 -0.20838,3.17622 -0.93468,0.81978 -2.35684,0.72674 -3.17662,-0.20794 -0.81934,-0.93513 -0.7263,-2.35688 0.20838,-3.17666 0.93467,-0.8198 2.35726,-0.7263 3.17662,0.20838 z" />
    <rect
       style="fill:#000000;stroke:#000000;stroke-width:0.42063788;stroke-linecap:round;stroke-linejoin:bevel;stroke-miterlimit:4;stroke-opacity:1;stroke-dasharray:none;stroke-dashoffset:0"
       id="rect7736"
       width="4.5140533"
       height="5.0819449"
       x="202.8289"
       y="280.39297"
       rx="0"
       ry="2.1434677" />
    <rect
       style="fill:#000000;stroke:#000000;stroke-width:0.42063788;stroke-linecap:round;stroke-linejoin:bevel;stroke-miterlimit:4;stroke-opacity:1;stroke-dasharray:none;stroke-dashoffset:0"
       id="rect7736-8"
       width="4.5140533"
       height="5.0819449"
       x="359.72522"
       y="280.50095"
       rx="0"
       ry="2.1434677" />
    <text
       xml:space="preserve"
       style="font-size:6.0156045px;font-style:normal;font-weight:normal;line-height:125%;letter-spacing:0px;word-spacing:0px;fill:#000000;fill-opacity:1;stroke:none;font-family:Sans"
       x="203.57286"
       y="278.12073"
       id="text4073"
       sodipodi:linespacing="125%"><tspan
         sodipodi:role="line"
         id="tspan4075"
         x="203.57286"
         y="278.12073"
         style="font-size:6.0156045px">1</tspan></text>
    <g
       id="g3996"
       transform="matrix(0.86159752,0,0,0.86159752,-42.854577,-126.41235)">
      <path
         inkscape:connector-curvature="0"
         id="path3233-3-3-9-1-95-05-5-3"
         style="fill:#000000;fill-opacity:1;stroke:#231f20;stroke-width:0.07786649;stroke-linecap:butt;stroke-linejoin:miter;stroke-miterlimit:4;stroke-opacity:1;stroke-dasharray:none"
         d="m 380.40629,473.07014 c -0.18334,0.2072 -0.1644,0.52393 0.0423,0.70758 0.20672,0.18372 0.52285,0.16484 0.70627,-0.0423 0.18327,-0.20727 0.16438,-0.52392 -0.0423,-0.70766 -0.20681,-0.18368 -0.52299,-0.16475 -0.70629,0.0424 z"
         inkscape:transform-center-x="-3.2098887"
         inkscape:transform-center-y="-2.8443093" />
      <path
         inkscape:connector-curvature="0"
         id="path3233-3-3-9-1-95-8-1-3-5"
         style="fill:#000000;fill-opacity:1;stroke:#231f20;stroke-width:0.07786649;stroke-linecap:butt;stroke-linejoin:miter;stroke-miterlimit:4;stroke-opacity:1;stroke-dasharray:none"
         d="m 377.88123,473.07016 c -0.18335,0.2072 -0.1644,0.52394 0.0423,0.70757 0.20681,0.18369 0.52289,0.16486 0.70629,-0.0423 0.18324,-0.20726 0.16439,-0.52393 -0.0423,-0.70765 -0.20663,-0.18377 -0.52297,-0.16475 -0.70627,0.0425 z"
         inkscape:transform-center-x="-0.68483229"
         inkscape:transform-center-y="-2.9301404" />
      <path
         inkscape:connector-curvature="0"
         id="path3233-3-3-9-1-95-0-2-9-7"
         style="fill:#000000;fill-opacity:1;stroke:#231f20;stroke-width:0.07786649;stroke-linecap:butt;stroke-linejoin:miter;stroke-miterlimit:4;stroke-opacity:1;stroke-dasharray:none"
         d="m 375.30538,473.0702 c -0.18337,0.20721 -0.1644,0.52393 0.0423,0.70757 0.20663,0.18377 0.52288,0.16486 0.70627,-0.0423 0.18326,-0.20726 0.16438,-0.52392 -0.0423,-0.70767 -0.20663,-0.18378 -0.523,-0.16475 -0.70629,0.0424 z"
         inkscape:transform-center-x="1.8910286"
         inkscape:transform-center-y="-2.9403907" />
    </g>
    <text
       xml:space="preserve"
       style="font-size:6.0156045px;font-style:normal;font-weight:normal;line-height:125%;letter-spacing:0px;word-spacing:0px;fill:#000000;fill-opacity:1;stroke:none;font-family:Sans"
       x="219.28316"
       y="278.14053"
       id="text4073-8"
       sodipodi:linespacing="125%"><tspan
         sodipodi:role="line"
         id="tspan4075-2"
         x="219.28316"
         y="278.14053"
         style="font-size:6.0156045px">2</tspan></text>
    <text
       xml:space="preserve"
       style="font-size:6.0156045px;font-style:normal;font-weight:normal;line-height:125%;letter-spacing:0px;word-spacing:0px;fill:#000000;fill-opacity:1;stroke:none;font-family:Sans"
       x="235.82634"
       y="278.11926"
       id="text4073-5"
       sodipodi:linespacing="125%"><tspan
         sodipodi:role="line"
         id="tspan4075-23"
         x="235.82634"
         y="278.11926"
         style="font-size:6.0156045px">3</tspan></text>
    <text
       xml:space="preserve"
       style="font-size:6.0156045px;font-style:normal;font-weight:normal;line-height:125%;letter-spacing:0px;word-spacing:0px;fill:#000000;fill-opacity:1;stroke:none;font-family:Sans"
       x="360.00726"
       y="278.14053"
       id="text4073-7"
       sodipodi:linespacing="125%"><tspan
         sodipodi:role="line"
         id="tspan4075-27"
         x="360.00726"
         y="278.14053"
         style="font-size:6.0156045px">L</tspan></text>
    <g
       id="g3032"
       transform="translate(-0.43195971,16.414469)">
      <path
         inkscape:connector-curvature="0"
         d="m 204.45928,282.87391 159.47511,0"
         style="fill:none;stroke:#231f20;stroke-width:0.36451423;stroke-linecap:butt;stroke-linejoin:miter;stroke-miterlimit:4;stroke-opacity:1;stroke-dasharray:none"
         id="path3034" />
      <path
         inkscape:connector-curvature="0"
         id="path3036"
         style="fill:#ffffff;fill-opacity:1;stroke:#231f20;stroke-width:0.34999999;stroke-linecap:butt;stroke-linejoin:miter;stroke-miterlimit:4;stroke-opacity:1;stroke-dasharray:none"
         d="m 347.98501,281.38992 c 0.81977,0.93468 0.72632,2.35685 -0.20836,3.17618 -0.93469,0.81977 -2.35685,0.72673 -3.17662,-0.20794 -0.81934,-0.93511 -0.7263,-2.35685 0.20837,-3.17661 0.93468,-0.81978 2.35726,-0.7263 3.17661,0.20837 z" />
      <path
         inkscape:connector-curvature="0"
         id="path3038"
         style="fill:#000000;fill-opacity:1;stroke:#231f20;stroke-width:0.34999999;stroke-linecap:butt;stroke-linejoin:miter;stroke-miterlimit:4;stroke-opacity:1;stroke-dasharray:none"
         d="m 300.91613,281.38988 c 0.81977,0.93468 0.7263,2.35685 -0.20837,3.17618 -0.93468,0.81977 -2.35684,0.72673 -3.17661,-0.20794 -0.81934,-0.93511 -0.7263,-2.35685 0.20837,-3.17661 0.93468,-0.81978 2.35726,-0.7263 3.17661,0.20837 z" />
      <path
         inkscape:connector-curvature="0"
         id="path3040"
         style="fill:#ffffff;fill-opacity:1;stroke:#231f20;stroke-width:0.34999999;stroke-linecap:butt;stroke-linejoin:miter;stroke-miterlimit:4;stroke-opacity:1;stroke-dasharray:none"
         d="m 332.29537,281.3899 c 0.81977,0.93468 0.7263,2.35685 -0.20837,3.17618 -0.93468,0.81977 -2.35684,0.72673 -3.17661,-0.20794 -0.81934,-0.93511 -0.7263,-2.35685 0.20837,-3.17661 0.93468,-0.81978 2.35726,-0.7263 3.17661,0.20837 z" />
      <path
         inkscape:connector-curvature="0"
         id="path3042"
         style="fill:#ffffff;fill-opacity:1;stroke:#231f20;stroke-width:0.34999999;stroke-linecap:butt;stroke-linejoin:miter;stroke-miterlimit:4;stroke-opacity:1;stroke-dasharray:none"
         d="m 222.46799,281.38988 c 0.81976,0.93468 0.7263,2.35685 -0.20838,3.17618 -0.93467,0.81977 -2.35683,0.72673 -3.17661,-0.20794 -0.81934,-0.93511 -0.7263,-2.35685 0.20838,-3.17661 0.93467,-0.81978 2.35726,-0.7263 3.17661,0.20837 z" />
      <path
         inkscape:connector-curvature="0"
         id="path3044"
         style="fill:#000000;fill-opacity:1;stroke:#231f20;stroke-width:0.35000268;stroke-linecap:butt;stroke-linejoin:miter;stroke-miterlimit:4;stroke-opacity:1;stroke-dasharray:none"
         d="m 269.53686,281.38989 c 0.81976,0.93469 0.7263,2.35689 -0.20837,3.17623 -0.93467,0.81978 -2.35683,0.72674 -3.17661,-0.20794 -0.81935,-0.93513 -0.72631,-2.35689 0.20837,-3.17666 0.93467,-0.8198 2.35726,-0.72631 3.17661,0.20837 z" />
      <path
         inkscape:connector-curvature="0"
         id="path3046"
         style="fill:#000000;stroke:#231f20;stroke-width:0.35000256;stroke-linecap:butt;stroke-linejoin:miter;stroke-miterlimit:4;stroke-opacity:1;stroke-dasharray:none"
         d="m 316.60579,281.38989 c 0.81975,0.9347 0.72629,2.35689 -0.20838,3.17622 -0.93468,0.81979 -2.35684,0.72675 -3.17661,-0.20793 -0.81935,-0.93513 -0.72631,-2.35688 0.20838,-3.17666 0.93467,-0.81979 2.35725,-0.72631 3.17661,0.20837 z" />
      <path
         inkscape:connector-curvature="0"
         id="path3048"
         style="fill:#ffffff;stroke:#231f20;stroke-width:0.35000288;stroke-linecap:butt;stroke-linejoin:miter;stroke-miterlimit:4;stroke-opacity:1;stroke-dasharray:none"
         d="m 238.15761,281.3899 c 0.81975,0.93469 0.72629,2.35688 -0.20838,3.17622 -0.93468,0.81978 -2.35684,0.72674 -3.17662,-0.20794 -0.81934,-0.93513 -0.7263,-2.35688 0.20838,-3.17666 0.93467,-0.8198 2.35726,-0.7263 3.17662,0.20838 z" />
      <path
         inkscape:connector-curvature="0"
         id="path3050"
         style="fill:#000000;stroke:#231f20;stroke-width:0.35000288;stroke-linecap:butt;stroke-linejoin:miter;stroke-miterlimit:4;stroke-opacity:1;stroke-dasharray:none"
         d="m 253.84724,281.3899 c 0.81975,0.93469 0.72629,2.35688 -0.20838,3.17622 -0.93468,0.81978 -2.35684,0.72674 -3.17662,-0.20794 -0.81934,-0.93513 -0.7263,-2.35688 0.20838,-3.17666 0.93467,-0.8198 2.35726,-0.7263 3.17662,0.20838 z" />
      <rect
         style="fill:#000000;stroke:#000000;stroke-width:0.42063788;stroke-linecap:round;stroke-linejoin:bevel;stroke-miterlimit:4;stroke-opacity:1;stroke-dasharray:none;stroke-dashoffset:0"
         id="rect3052"
         width="4.5140533"
         height="5.0819449"
         x="202.8289"
         y="280.39297"
         rx="0"
         ry="2.1434677" />
      <rect
         style="fill:#000000;stroke:#000000;stroke-width:0.42063788;stroke-linecap:round;stroke-linejoin:bevel;stroke-miterlimit:4;stroke-opacity:1;stroke-dasharray:none;stroke-dashoffset:0"
         id="rect3054"
         width="4.5140533"
         height="5.0819449"
         x="359.72522"
         y="280.50095"
         rx="0"
         ry="2.1434677" />
      <text
         xml:space="preserve"
         style="font-size:6.0156045px;font-style:normal;font-weight:normal;line-height:125%;letter-spacing:0px;word-spacing:0px;fill:#000000;fill-opacity:1;stroke:none;font-family:Sans"
         x="203.57286"
         y="278.12073"
         id="text3056"
         sodipodi:linespacing="125%"><tspan
           sodipodi:role="line"
           id="tspan3058"
           x="203.57286"
           y="278.12073"
           style="font-size:6.0156045px">1</tspan></text>
      <g
         id="g3060"
         transform="matrix(0.86159752,0,0,0.86159752,-42.854577,-126.41235)">
        <path
           inkscape:connector-curvature="0"
           id="path3062"
           style="fill:#000000;fill-opacity:1;stroke:#231f20;stroke-width:0.07786649;stroke-linecap:butt;stroke-linejoin:miter;stroke-miterlimit:4;stroke-opacity:1;stroke-dasharray:none"
           d="m 380.40629,473.07014 c -0.18334,0.2072 -0.1644,0.52393 0.0423,0.70758 0.20672,0.18372 0.52285,0.16484 0.70627,-0.0423 0.18327,-0.20727 0.16438,-0.52392 -0.0423,-0.70766 -0.20681,-0.18368 -0.52299,-0.16475 -0.70629,0.0424 z"
           inkscape:transform-center-x="-3.2098887"
           inkscape:transform-center-y="-2.8443093" />
        <path
           inkscape:connector-curvature="0"
           id="path3064"
           style="fill:#000000;fill-opacity:1;stroke:#231f20;stroke-width:0.07786649;stroke-linecap:butt;stroke-linejoin:miter;stroke-miterlimit:4;stroke-opacity:1;stroke-dasharray:none"
           d="m 377.88123,473.07016 c -0.18335,0.2072 -0.1644,0.52394 0.0423,0.70757 0.20681,0.18369 0.52289,0.16486 0.70629,-0.0423 0.18324,-0.20726 0.16439,-0.52393 -0.0423,-0.70765 -0.20663,-0.18377 -0.52297,-0.16475 -0.70627,0.0425 z"
           inkscape:transform-center-x="-0.68483229"
           inkscape:transform-center-y="-2.9301404" />
        <path
           inkscape:connector-curvature="0"
           id="path3066"
           style="fill:#000000;fill-opacity:1;stroke:#231f20;stroke-width:0.07786649;stroke-linecap:butt;stroke-linejoin:miter;stroke-miterlimit:4;stroke-opacity:1;stroke-dasharray:none"
           d="m 375.30538,473.0702 c -0.18337,0.20721 -0.1644,0.52393 0.0423,0.70757 0.20663,0.18377 0.52288,0.16486 0.70627,-0.0423 0.18326,-0.20726 0.16438,-0.52392 -0.0423,-0.70767 -0.20663,-0.18378 -0.523,-0.16475 -0.70629,0.0424 z"
           inkscape:transform-center-x="1.8910286"
           inkscape:transform-center-y="-2.9403907" />
      </g>
      <text
         xml:space="preserve"
         style="font-size:6.0156045px;font-style:normal;font-weight:normal;line-height:125%;letter-spacing:0px;word-spacing:0px;fill:#000000;fill-opacity:1;stroke:none;font-family:Sans"
         x="219.28316"
         y="278.14053"
         id="text3068"
         sodipodi:linespacing="125%"><tspan
           sodipodi:role="line"
           id="tspan3070"
           x="219.28316"
           y="278.14053"
           style="font-size:6.0156045px">2</tspan></text>
      <text
         xml:space="preserve"
         style="font-size:6.0156045px;font-style:normal;font-weight:normal;line-height:125%;letter-spacing:0px;word-spacing:0px;fill:#000000;fill-opacity:1;stroke:none;font-family:Sans"
         x="235.82634"
         y="278.11926"
         id="text3072"
         sodipodi:linespacing="125%"><tspan
           sodipodi:role="line"
           id="tspan3074"
           x="235.82634"
           y="278.11926"
           style="font-size:6.0156045px">3</tspan></text>
      <text
         xml:space="preserve"
         style="font-size:6.0156045px;font-style:normal;font-weight:normal;line-height:125%;letter-spacing:0px;word-spacing:0px;fill:#000000;fill-opacity:1;stroke:none;font-family:Sans"
         x="360.00726"
         y="278.14053"
         id="text3076"
         sodipodi:linespacing="125%"><tspan
           sodipodi:role="line"
           id="tspan3078"
           x="360.00726"
           y="278.14053"
           style="font-size:6.0156045px">L</tspan></text>
    </g>
    <g
       transform="translate(-0.21597985,33.908837)"
       id="g3080">
      <path
         id="path3082"
         style="fill:none;stroke:#231f20;stroke-width:0.36451423;stroke-linecap:butt;stroke-linejoin:miter;stroke-miterlimit:4;stroke-opacity:1;stroke-dasharray:none"
         d="m 204.45928,282.87391 159.47511,0"
         inkscape:connector-curvature="0" />
      <path
         d="m 347.98501,281.38992 c 0.81977,0.93468 0.72632,2.35685 -0.20836,3.17618 -0.93469,0.81977 -2.35685,0.72673 -3.17662,-0.20794 -0.81934,-0.93511 -0.7263,-2.35685 0.20837,-3.17661 0.93468,-0.81978 2.35726,-0.7263 3.17661,0.20837 z"
         style="fill:#ffffff;fill-opacity:1;stroke:#231f20;stroke-width:0.34999999;stroke-linecap:butt;stroke-linejoin:miter;stroke-miterlimit:4;stroke-opacity:1;stroke-dasharray:none"
         id="path3084"
         inkscape:connector-curvature="0" />
      <path
         d="m 300.91613,281.38988 c 0.81977,0.93468 0.7263,2.35685 -0.20837,3.17618 -0.93468,0.81977 -2.35684,0.72673 -3.17661,-0.20794 -0.81934,-0.93511 -0.7263,-2.35685 0.20837,-3.17661 0.93468,-0.81978 2.35726,-0.7263 3.17661,0.20837 z"
         style="fill:#000000;fill-opacity:1;stroke:#231f20;stroke-width:0.34999999;stroke-linecap:butt;stroke-linejoin:miter;stroke-miterlimit:4;stroke-opacity:1;stroke-dasharray:none"
         id="path3086"
         inkscape:connector-curvature="0" />
      <path
         d="m 332.29537,281.3899 c 0.81977,0.93468 0.7263,2.35685 -0.20837,3.17618 -0.93468,0.81977 -2.35684,0.72673 -3.17661,-0.20794 -0.81934,-0.93511 -0.7263,-2.35685 0.20837,-3.17661 0.93468,-0.81978 2.35726,-0.7263 3.17661,0.20837 z"
         style="fill:#ffffff;fill-opacity:1;stroke:#231f20;stroke-width:0.34999999;stroke-linecap:butt;stroke-linejoin:miter;stroke-miterlimit:4;stroke-opacity:1;stroke-dasharray:none"
         id="path3088"
         inkscape:connector-curvature="0" />
      <path
         d="m 222.46799,281.38988 c 0.81976,0.93468 0.7263,2.35685 -0.20838,3.17618 -0.93467,0.81977 -2.35683,0.72673 -3.17661,-0.20794 -0.81934,-0.93511 -0.7263,-2.35685 0.20838,-3.17661 0.93467,-0.81978 2.35726,-0.7263 3.17661,0.20837 z"
         style="fill:#ffffff;fill-opacity:1;stroke:#231f20;stroke-width:0.34999999;stroke-linecap:butt;stroke-linejoin:miter;stroke-miterlimit:4;stroke-opacity:1;stroke-dasharray:none"
         id="path3090"
         inkscape:connector-curvature="0" />
      <path
         d="m 269.53686,281.38989 c 0.81976,0.93469 0.7263,2.35689 -0.20837,3.17623 -0.93467,0.81978 -2.35683,0.72674 -3.17661,-0.20794 -0.81935,-0.93513 -0.72631,-2.35689 0.20837,-3.17666 0.93467,-0.8198 2.35726,-0.72631 3.17661,0.20837 z"
         style="fill:#000000;fill-opacity:1;stroke:#231f20;stroke-width:0.35000268;stroke-linecap:butt;stroke-linejoin:miter;stroke-miterlimit:4;stroke-opacity:1;stroke-dasharray:none"
         id="path3092"
         inkscape:connector-curvature="0" />
      <path
         d="m 316.60579,281.38989 c 0.81975,0.9347 0.72629,2.35689 -0.20838,3.17622 -0.93468,0.81979 -2.35684,0.72675 -3.17661,-0.20793 -0.81935,-0.93513 -0.72631,-2.35688 0.20838,-3.17666 0.93467,-0.81979 2.35725,-0.72631 3.17661,0.20837 z"
         style="fill:#000000;stroke:#231f20;stroke-width:0.35000256;stroke-linecap:butt;stroke-linejoin:miter;stroke-miterlimit:4;stroke-opacity:1;stroke-dasharray:none"
         id="path3094"
         inkscape:connector-curvature="0" />
      <path
         d="m 238.15761,281.3899 c 0.81975,0.93469 0.72629,2.35688 -0.20838,3.17622 -0.93468,0.81978 -2.35684,0.72674 -3.17662,-0.20794 -0.81934,-0.93513 -0.7263,-2.35688 0.20838,-3.17666 0.93467,-0.8198 2.35726,-0.7263 3.17662,0.20838 z"
         style="fill:#ffffff;stroke:#231f20;stroke-width:0.35000288;stroke-linecap:butt;stroke-linejoin:miter;stroke-miterlimit:4;stroke-opacity:1;stroke-dasharray:none"
         id="path3096"
         inkscape:connector-curvature="0" />
      <path
         d="m 253.84724,281.3899 c 0.81975,0.93469 0.72629,2.35688 -0.20838,3.17622 -0.93468,0.81978 -2.35684,0.72674 -3.17662,-0.20794 -0.81934,-0.93513 -0.7263,-2.35688 0.20838,-3.17666 0.93467,-0.8198 2.35726,-0.7263 3.17662,0.20838 z"
         style="fill:#000000;stroke:#231f20;stroke-width:0.35000288;stroke-linecap:butt;stroke-linejoin:miter;stroke-miterlimit:4;stroke-opacity:1;stroke-dasharray:none"
         id="path3098"
         inkscape:connector-curvature="0" />
      <rect
         ry="2.1434677"
         rx="0"
         y="280.39297"
         x="202.8289"
         height="5.0819449"
         width="4.5140533"
         id="rect3100"
         style="fill:#000000;stroke:#000000;stroke-width:0.42063788;stroke-linecap:round;stroke-linejoin:bevel;stroke-miterlimit:4;stroke-opacity:1;stroke-dasharray:none;stroke-dashoffset:0" />
      <rect
         ry="2.1434677"
         rx="0"
         y="280.50095"
         x="359.72522"
         height="5.0819449"
         width="4.5140533"
         id="rect3102"
         style="fill:#000000;stroke:#000000;stroke-width:0.42063788;stroke-linecap:round;stroke-linejoin:bevel;stroke-miterlimit:4;stroke-opacity:1;stroke-dasharray:none;stroke-dashoffset:0" />
      <text
         sodipodi:linespacing="125%"
         id="text3104"
         y="278.12073"
         x="203.57286"
         style="font-size:6.0156045px;font-style:normal;font-weight:normal;line-height:125%;letter-spacing:0px;word-spacing:0px;fill:#000000;fill-opacity:1;stroke:none;font-family:Sans"
         xml:space="preserve"><tspan
           style="font-size:6.0156045px"
           y="278.12073"
           x="203.57286"
           id="tspan3106"
           sodipodi:role="line">1</tspan></text>
      <g
         transform="matrix(0.86159752,0,0,0.86159752,-42.854577,-126.41235)"
         id="g3108">
        <path
           inkscape:transform-center-y="-2.8443093"
           inkscape:transform-center-x="-3.2098887"
           d="m 380.40629,473.07014 c -0.18334,0.2072 -0.1644,0.52393 0.0423,0.70758 0.20672,0.18372 0.52285,0.16484 0.70627,-0.0423 0.18327,-0.20727 0.16438,-0.52392 -0.0423,-0.70766 -0.20681,-0.18368 -0.52299,-0.16475 -0.70629,0.0424 z"
           style="fill:#000000;fill-opacity:1;stroke:#231f20;stroke-width:0.07786649;stroke-linecap:butt;stroke-linejoin:miter;stroke-miterlimit:4;stroke-opacity:1;stroke-dasharray:none"
           id="path3110"
           inkscape:connector-curvature="0" />
        <path
           inkscape:transform-center-y="-2.9301404"
           inkscape:transform-center-x="-0.68483229"
           d="m 377.88123,473.07016 c -0.18335,0.2072 -0.1644,0.52394 0.0423,0.70757 0.20681,0.18369 0.52289,0.16486 0.70629,-0.0423 0.18324,-0.20726 0.16439,-0.52393 -0.0423,-0.70765 -0.20663,-0.18377 -0.52297,-0.16475 -0.70627,0.0425 z"
           style="fill:#000000;fill-opacity:1;stroke:#231f20;stroke-width:0.07786649;stroke-linecap:butt;stroke-linejoin:miter;stroke-miterlimit:4;stroke-opacity:1;stroke-dasharray:none"
           id="path3112"
           inkscape:connector-curvature="0" />
        <path
           inkscape:transform-center-y="-2.9403907"
           inkscape:transform-center-x="1.8910286"
           d="m 375.30538,473.0702 c -0.18337,0.20721 -0.1644,0.52393 0.0423,0.70757 0.20663,0.18377 0.52288,0.16486 0.70627,-0.0423 0.18326,-0.20726 0.16438,-0.52392 -0.0423,-0.70767 -0.20663,-0.18378 -0.523,-0.16475 -0.70629,0.0424 z"
           style="fill:#000000;fill-opacity:1;stroke:#231f20;stroke-width:0.07786649;stroke-linecap:butt;stroke-linejoin:miter;stroke-miterlimit:4;stroke-opacity:1;stroke-dasharray:none"
           id="path3114"
           inkscape:connector-curvature="0" />
      </g>
      <text
         sodipodi:linespacing="125%"
         id="text3116"
         y="278.14053"
         x="219.28316"
         style="font-size:6.0156045px;font-style:normal;font-weight:normal;line-height:125%;letter-spacing:0px;word-spacing:0px;fill:#000000;fill-opacity:1;stroke:none;font-family:Sans"
         xml:space="preserve"><tspan
           style="font-size:6.0156045px"
           y="278.14053"
           x="219.28316"
           id="tspan3118"
           sodipodi:role="line">2</tspan></text>
      <text
         sodipodi:linespacing="125%"
         id="text3120"
         y="278.11926"
         x="235.82634"
         style="font-size:6.0156045px;font-style:normal;font-weight:normal;line-height:125%;letter-spacing:0px;word-spacing:0px;fill:#000000;fill-opacity:1;stroke:none;font-family:Sans"
         xml:space="preserve"><tspan
           style="font-size:6.0156045px"
           y="278.11926"
           x="235.82634"
           id="tspan3122"
           sodipodi:role="line">3</tspan></text>
      <text
         sodipodi:linespacing="125%"
         id="text3124"
         y="278.14053"
         x="360.00726"
         style="font-size:6.0156045px;font-style:normal;font-weight:normal;line-height:125%;letter-spacing:0px;word-spacing:0px;fill:#000000;fill-opacity:1;stroke:none;font-family:Sans"
         xml:space="preserve"><tspan
           style="font-size:6.0156045px"
           y="278.14053"
           x="360.00726"
           id="tspan3126"
           sodipodi:role="line">L</tspan></text>
    </g>
    <g
       transform="matrix(0.86159752,0,0,0.86159752,-42.638597,-82.568439)"
       id="g3151">
      <path
         inkscape:transform-center-y="-2.8443093"
         inkscape:transform-center-x="-3.2098887"
         d="m 380.40629,473.07014 c -0.18334,0.2072 -0.1644,0.52393 0.0423,0.70758 0.20672,0.18372 0.52285,0.16484 0.70627,-0.0423 0.18327,-0.20727 0.16438,-0.52392 -0.0423,-0.70766 -0.20681,-0.18368 -0.52299,-0.16475 -0.70629,0.0424 z"
         style="fill:#000000;fill-opacity:1;stroke:#231f20;stroke-width:0.07786649;stroke-linecap:butt;stroke-linejoin:miter;stroke-miterlimit:4;stroke-opacity:1;stroke-dasharray:none"
         id="path3153"
         inkscape:connector-curvature="0" />
      <path
         inkscape:transform-center-y="-2.9301404"
         inkscape:transform-center-x="-0.68483229"
         d="m 377.88123,473.07016 c -0.18335,0.2072 -0.1644,0.52394 0.0423,0.70757 0.20681,0.18369 0.52289,0.16486 0.70629,-0.0423 0.18324,-0.20726 0.16439,-0.52393 -0.0423,-0.70765 -0.20663,-0.18377 -0.52297,-0.16475 -0.70627,0.0425 z"
         style="fill:#000000;fill-opacity:1;stroke:#231f20;stroke-width:0.07786649;stroke-linecap:butt;stroke-linejoin:miter;stroke-miterlimit:4;stroke-opacity:1;stroke-dasharray:none"
         id="path3155"
         inkscape:connector-curvature="0" />
      <path
         inkscape:transform-center-y="-2.9403907"
         inkscape:transform-center-x="1.8910286"
         d="m 375.30538,473.0702 c -0.18337,0.20721 -0.1644,0.52393 0.0423,0.70757 0.20663,0.18377 0.52288,0.16486 0.70627,-0.0423 0.18326,-0.20726 0.16438,-0.52392 -0.0423,-0.70767 -0.20663,-0.18378 -0.523,-0.16475 -0.70629,0.0424 z"
         style="fill:#000000;fill-opacity:1;stroke:#231f20;stroke-width:0.07786649;stroke-linecap:butt;stroke-linejoin:miter;stroke-miterlimit:4;stroke-opacity:1;stroke-dasharray:none"
         id="path3157"
         inkscape:connector-curvature="0" />
    </g>
  </g>
</svg>
