<?xml version="1.0" encoding="UTF-8" standalone="no"?>
<!-- Created with Inkscape (http://www.inkscape.org/) -->

<svg
   xmlns:dc="http://purl.org/dc/elements/1.1/"
   xmlns:cc="http://creativecommons.org/ns#"
   xmlns:rdf="http://www.w3.org/1999/02/22-rdf-syntax-ns#"
   xmlns:svg="http://www.w3.org/2000/svg"
   xmlns="http://www.w3.org/2000/svg"
   xmlns:sodipodi="http://sodipodi.sourceforge.net/DTD/sodipodi-0.dtd"
   xmlns:inkscape="http://www.inkscape.org/namespaces/inkscape"
   width="744.09448819"
   height="1052.3622047"
   id="svg2"
   version="1.1"
   inkscape:version="0.48.4 r9939"
   sodipodi:docname="New document 1">
  <sodipodi:namedview
     id="base"
     pagecolor="#ffffff"
     bordercolor="#666666"
     borderopacity="1.0"
     inkscape:pageopacity="0.0"
     inkscape:pageshadow="2"
     inkscape:zoom="0.98994949"
     inkscape:cx="212.3854"
     inkscape:cy="679.44735"
     inkscape:document-units="px"
     inkscape:current-layer="layer1"
     showgrid="false"
     inkscape:window-width="1317"
     inkscape:window-height="744"
     inkscape:window-x="49"
     inkscape:window-y="24"
     inkscape:window-maximized="1" />
  <defs
     id="defs4" />
  <metadata
     id="metadata7">
    <rdf:RDF>
      <cc:Work
         rdf:about="">
        <dc:format>image/svg+xml</dc:format>
        <dc:type
           rdf:resource="http://purl.org/dc/dcmitype/StillImage" />
        <dc:title></dc:title>
      </cc:Work>
    </rdf:RDF>
  </metadata>
  <g
     id="layer1"
     inkscape:groupmode="layer"
     inkscape:label="Layer 1">
    <path
       d="m 391.42857,375.93362 a 142.85715,140.71428 0 1 1 -285.71429,0 142.85715,140.71428 0 1 1 285.71429,0 z"
       sodipodi:ry="140.71428"
       sodipodi:rx="142.85715"
       sodipodi:cy="375.93362"
       sodipodi:cx="248.57143"
       id="path2987"
       style="fill:#e6e6e6;fill-opacity:1;stroke:#000000;stroke-width:1;stroke-linecap:round;stroke-linejoin:bevel;stroke-miterlimit:4;stroke-opacity:1;stroke-dasharray:none;stroke-dashoffset:0"
       sodipodi:type="arc"
       transform="translate(191.42857,-21.428571)" />
    <g
       id="g2995"
       transform="translate(226.84638,-123.03046)">
      <g
         word-spacing="normal"
         letter-spacing="normal"
         font-size-adjust="none"
         font-stretch="normal"
         font-weight="normal"
         font-variant="normal"
         font-style="normal"
         stroke-miterlimit="10.433"
         xml:space="preserve"
         transform="matrix(1.0629921,0,0,-1.0629921,-186.02362,789.27165)"
         id="content"
         style="font-style:normal;font-variant:normal;font-weight:normal;font-stretch:normal;letter-spacing:normal;word-spacing:normal;text-anchor:start;fill:none;stroke:#000000;stroke-linecap:butt;stroke-linejoin:miter;stroke-miterlimit:10.43299961;stroke-opacity:1;stroke-dasharray:none;stroke-dashoffset:0"><path
           id="path2998"
           d="m 468.43,422.93 0.2,0 0.21,0 0.23,0 0.25,-0.01 0.25,-0.01 0.27,-0.02 0.27,-0.03 0.28,-0.03 0.29,-0.04 0.29,-0.05 0.3,-0.06 0.3,-0.07 0.3,-0.08 0.29,-0.1 0.3,-0.11 0.29,-0.13 0.29,-0.14 0.28,-0.16 0.28,-0.18 0.26,-0.2 0.26,-0.22 0.24,-0.24 0.23,-0.26 0.11,-0.14 0.1,-0.15 0.11,-0.15 0.09,-0.16 0.1,-0.16 0.09,-0.17 0.08,-0.18 0.08,-0.18 0.08,-0.2 0.07,-0.19 0.06,-0.21 0.06,-0.21 0.05,-0.22 0.05,-0.23 0.04,-0.23 0.04,-0.24 0.03,-0.25 0.02,-0.26 c 0.04,-0.59 0.09,-1.25 0.89,-1.25 0.86,0 0.86,0.7 0.86,1.6 l -1.75,4.39 c -0.75,0.93 -2.05,1.68 -2.64,1.93 0.95,0.46 1.93,1.25 2.64,2.1 V 422 l 1.75,-4.39 v 13.5 c 0,0.79 0,1.59 -0.86,1.59 -0.64,0 -0.85,-0.5 -0.89,-1.05 -0.3,-5.78 -3.78,-6.76 -7.42,-6.92 v 10.52 c 0,3.34 0.93,3.34 2.14,3.34 h 2.34 c 6.38,0 9.61,-3.44 9.91,-6.88 0.06,-0.4 0.11,-1.15 0.9,-1.15 0.85,0 0.85,0.8 0.85,1.64 v 6.48 c 0,1.55 -0.1,1.64 -1.64,1.64 l -0.11,-1.73 v -2.34 c -0.69,0.75 -1.55,1.64 -2.69,2.34 h 2.69 l 0.11,1.73 h -25.02 c -0.89,0 -1.69,0 -1.69,-0.89 0,-0.84 0.94,-0.84 1.35,-0.84 2.82,0 3.03,-0.41 3.03,-2.84 v -24.97 l 1.75,-0.1 v 25.16 c 0,0.59 0,1.84 -0.41,2.75 h 5.28 c -0.54,-1.16 -0.54,-2.8 -0.54,-3.25 v -24.5 c 0,-0.75 0,-1.95 0.5,-2.89 h -5.24 c 0.41,0.89 0.41,2.14 0.41,2.73 l -1.75,0.1 c 0,-2.35 -0.14,-2.83 -2.78,-2.83 -0.75,0 -1.6,0 -1.6,-0.86 0,-0.89 0.8,-0.89 1.69,-0.89 h 14.41 c 0.89,0 1.64,0 1.64,0.89 0,0.86 -0.85,0.86 -1.5,0.86 -3.83,0 -4.03,0.34 -4.03,2.98 z"
           inkscape:connector-curvature="0"
           style="fill:#000000;stroke-width:0" /><path
           id="path3000"
           d="m 490.25,426.39 -0.01,-0.05 -0.02,-0.04 -0.01,-0.05 -0.02,-0.05 -0.01,-0.05 -0.01,-0.05 -0.02,-0.05 -0.01,-0.05 -0.03,-0.11 -0.03,-0.12 -0.03,-0.11 -0.02,-0.11 -0.02,-0.05 -0.01,-0.05 -0.01,-0.05 -0.01,-0.05 -0.01,-0.05 -0.01,-0.05 -0.01,-0.04 -0.01,-0.04 -0.01,-0.04 0,-0.03 -0.01,-0.03 0,-0.03 -0.01,-0.03 0,-0.02 0,0 0,-0.01 0,-0.01 0,-0.01 c 0,-0.76 0.62,-1.1 1.18,-1.1 0.63,0 1.18,0.45 1.36,0.76 0.17,0.31 0.46,1.42 0.63,2.16 0.17,0.65 0.54,2.26 0.76,3.14 0.21,0.76 0.43,1.53 0.6,2.33 0.37,1.43 0.45,1.7 1.45,3.14 0.99,1.39 2.63,3.2 5.23,3.2 2.02,0 2.05,-1.78 2.05,-2.44 0,-2.09 -1.48,-5.95 -2.05,-7.42 -0.39,-0.98 -0.53,-1.3 -0.53,-1.89 0,-1.84 1.55,-2.98 3.32,-2.98 3.48,0 5.01,4.79 5.01,5.32 0,0.46 -0.45,0.46 -0.54,0.46 -0.5,0 -0.54,-0.21 -0.68,-0.6 -0.79,-2.78 -2.29,-4.22 -3.68,-4.22 -0.74,0 -0.88,0.49 -0.88,1.22 0,0.8 0.17,1.25 0.8,2.83 0.42,1.08 1.86,4.77 1.86,6.72 0,3.39 -2.69,3.97 -4.53,3.97 -2.89,0 -4.85,-1.77 -5.89,-3.16 -0.26,2.39 -2.3,3.16 -3.74,3.16 -1.5,0 -2.3,-1.08 -2.75,-1.88 -0.77,-1.28 -1.25,-3.28 -1.25,-3.45 0,-0.45 0.48,-0.45 0.59,-0.45 0.49,0 0.52,0.11 0.77,1.04 0.52,2.07 1.19,3.77 2.55,3.77 0.9,0 1.14,-0.77 1.14,-1.7 0,-0.68 -0.31,-1.96 -0.57,-2.89 -0.23,-0.96 -0.57,-2.38 -0.76,-3.14 z"
           inkscape:connector-curvature="0"
           style="fill:#000000;stroke-width:0" /><path
           id="path3002"
           d="m 503.59,400.18 h -1.18 c -0.1,-0.76 -0.46,-2.82 -0.91,-3.17 -0.27,-0.2 -2.95,-0.2 -3.44,-0.2 h -6.42 c 3.66,3.23 4.88,4.2 6.97,5.84 2.58,2.06 4.98,4.22 4.98,7.53 0,4.22 -3.68,6.8 -8.15,6.8 -4.32,0 -7.25,-3.03 -7.25,-6.23 0,-1.79 1.5,-1.96 1.86,-1.96 0.83,0 1.84,0.6 1.84,1.85 0,0.62 -0.25,1.84 -2.06,1.84 1.08,2.47 3.45,3.23 5.09,3.23 3.49,0 5.3,-2.7 5.3,-5.53 0,-3.03 -2.16,-5.43 -3.28,-6.68 l -8.39,-8.3 c -0.36,-0.31 -0.36,-0.39 -0.36,-1.36 h 14.36 z"
           inkscape:connector-curvature="0"
           style="fill:#000000;stroke-width:0" /></g>    </g>
    <path
       sodipodi:type="arc"
       style="fill:#000000;fill-opacity:1;stroke:#000000;stroke-width:1;stroke-linecap:round;stroke-linejoin:bevel;stroke-miterlimit:4;stroke-opacity:1;stroke-dasharray:none;stroke-dashoffset:0"
       id="path3013"
       sodipodi:cx="165.71428"
       sodipodi:cy="315.21933"
       sodipodi:rx="5.7142859"
       sodipodi:ry="5.7142859"
       d="m 171.42857,315.21933 a 5.7142859,5.7142859 0 1 1 -11.42858,0 5.7142859,5.7142859 0 1 1 11.42858,0 z"
       transform="translate(214.6957,-37.005892)" />
    <path
       d="m 171.42857,315.21933 a 5.7142859,5.7142859 0 1 1 -11.42858,0 5.7142859,5.7142859 0 1 1 11.42858,0 z"
       sodipodi:ry="5.7142859"
       sodipodi:rx="5.7142859"
       sodipodi:cy="315.21933"
       sodipodi:cx="165.71428"
       id="path3015"
       style="fill:#000000;fill-opacity:1;stroke:#000000;stroke-width:1;stroke-linecap:round;stroke-linejoin:bevel;stroke-miterlimit:4;stroke-opacity:1;stroke-dasharray:none;stroke-dashoffset:0"
       sodipodi:type="arc"
       transform="translate(241.55942,103.81295)" />
    <path
       sodipodi:type="arc"
       style="fill:#000000;fill-opacity:1;stroke:#000000;stroke-width:1;stroke-linecap:round;stroke-linejoin:bevel;stroke-miterlimit:4;stroke-opacity:1;stroke-dasharray:none;stroke-dashoffset:0"
       id="path3017"
       sodipodi:cx="165.71428"
       sodipodi:cy="315.21933"
       sodipodi:rx="5.7142859"
       sodipodi:ry="5.7142859"
       d="m 171.42857,315.21933 a 5.7142859,5.7142859 0 1 1 -11.42858,0 5.7142859,5.7142859 0 1 1 11.42858,0 z"
       transform="translate(284.76474,124.18686)" />
    <path
       d="m 171.42857,315.21933 a 5.7142859,5.7142859 0 1 1 -11.42858,0 5.7142859,5.7142859 0 1 1 11.42858,0 z"
       sodipodi:ry="5.7142859"
       sodipodi:rx="5.7142859"
       sodipodi:cy="315.21933"
       sodipodi:cx="165.71428"
       id="path3019"
       style="fill:#000000;fill-opacity:1;stroke:#000000;stroke-width:1;stroke-linecap:round;stroke-linejoin:bevel;stroke-miterlimit:4;stroke-opacity:1;stroke-dasharray:none;stroke-dashoffset:0"
       sodipodi:type="arc"
       transform="translate(300.61107,20.646721)" />
    <path
       sodipodi:type="arc"
       style="fill:#000000;fill-opacity:1;stroke:#000000;stroke-width:1;stroke-linecap:round;stroke-linejoin:bevel;stroke-miterlimit:4;stroke-opacity:1;stroke-dasharray:none;stroke-dashoffset:0"
       id="path3021"
       sodipodi:cx="165.71428"
       sodipodi:cy="315.21933"
       sodipodi:rx="5.7142859"
       sodipodi:ry="5.7142859"
       d="m 171.42857,315.21933 a 5.7142859,5.7142859 0 1 1 -11.42858,0 5.7142859,5.7142859 0 1 1 11.42858,0 z"
       transform="translate(373.0435,52.548589)" />
    <path
       d="m 171.42857,315.21933 a 5.7142859,5.7142859 0 1 1 -11.42858,0 5.7142859,5.7142859 0 1 1 11.42858,0 z"
       sodipodi:ry="5.7142859"
       sodipodi:rx="5.7142859"
       sodipodi:cy="315.21933"
       sodipodi:cx="165.71428"
       id="path3023"
       style="fill:#000000;fill-opacity:1;stroke:#000000;stroke-width:1;stroke-linecap:round;stroke-linejoin:bevel;stroke-miterlimit:4;stroke-opacity:1;stroke-dasharray:none;stroke-dashoffset:0"
       sodipodi:type="arc"
       transform="translate(267.12583,-18.443844)" />
    <path
       sodipodi:type="arc"
       style="fill:#000000;fill-opacity:1;stroke:#000000;stroke-width:1;stroke-linecap:round;stroke-linejoin:bevel;stroke-miterlimit:4;stroke-opacity:1;stroke-dasharray:none;stroke-dashoffset:0"
       id="path3025"
       sodipodi:cx="165.71428"
       sodipodi:cy="315.21933"
       sodipodi:rx="5.7142859"
       sodipodi:ry="5.7142859"
       d="m 171.42857,315.21933 a 5.7142859,5.7142859 0 1 1 -11.42858,0 5.7142859,5.7142859 0 1 1 11.42858,0 z"
       transform="translate(313.95609,63.096252)" />
    <path
       d="m 171.42857,315.21933 a 5.7142859,5.7142859 0 1 1 -11.42858,0 5.7142859,5.7142859 0 1 1 11.42858,0 z"
       sodipodi:ry="5.7142859"
       sodipodi:rx="5.7142859"
       sodipodi:cy="315.21933"
       sodipodi:cx="165.71428"
       id="path3027"
       style="fill:#000000;fill-opacity:1;stroke:#000000;stroke-width:1;stroke-linecap:round;stroke-linejoin:bevel;stroke-miterlimit:4;stroke-opacity:1;stroke-dasharray:none;stroke-dashoffset:0"
       sodipodi:type="arc"
       transform="translate(187.64377,80.838467)" />
    <path
       sodipodi:type="arc"
       style="fill:#000000;fill-opacity:1;stroke:#000000;stroke-width:1;stroke-linecap:round;stroke-linejoin:bevel;stroke-miterlimit:4;stroke-opacity:1;stroke-dasharray:none;stroke-dashoffset:0"
       id="path3029"
       sodipodi:cx="165.71428"
       sodipodi:cy="315.21933"
       sodipodi:rx="5.7142859"
       sodipodi:ry="5.7142859"
       d="m 171.42857,315.21933 a 5.7142859,5.7142859 0 1 1 -11.42858,0 5.7142859,5.7142859 0 1 1 11.42858,0 z"
       transform="translate(303.48696,152.25562)" />
    <path
       d="m 171.42857,315.21933 a 5.7142859,5.7142859 0 1 1 -11.42858,0 5.7142859,5.7142859 0 1 1 11.42858,0 z"
       sodipodi:ry="5.7142859"
       sodipodi:rx="5.7142859"
       sodipodi:cy="315.21933"
       sodipodi:cx="165.71428"
       id="path3031"
       style="fill:#000000;fill-opacity:1;stroke:#000000;stroke-width:1;stroke-linecap:round;stroke-linejoin:bevel;stroke-miterlimit:4;stroke-opacity:1;stroke-dasharray:none;stroke-dashoffset:0"
       sodipodi:type="arc"
       transform="translate(317.20246,-45.729688)" />
    <path
       sodipodi:type="arc"
       style="fill:#000000;fill-opacity:1;stroke:#000000;stroke-width:1;stroke-linecap:round;stroke-linejoin:bevel;stroke-miterlimit:4;stroke-opacity:1;stroke-dasharray:none;stroke-dashoffset:0"
       id="path3033"
       sodipodi:cx="165.71428"
       sodipodi:cy="315.21933"
       sodipodi:rx="5.7142859"
       sodipodi:ry="5.7142859"
       d="m 171.42857,315.21933 a 5.7142859,5.7142859 0 1 1 -11.42858,0 5.7142859,5.7142859 0 1 1 11.42858,0 z"
       transform="translate(140.62744,15.707489)" />
  </g>
</svg>
